<?xml version="1.0" encoding="UTF-8"?>
<!DOCTYPE svg PUBLIC "-//W3C//DTD SVG 1.1//EN" "http://www.w3.org/Graphics/SVG/1.1/DTD/svg11.dtd">
<!-- Creator: CorelDRAW 2021 (64-Bit) -->
<svg xmlns="http://www.w3.org/2000/svg" xml:space="preserve" width="43.3492mm" height="43.3492mm" version="1.1" style="shape-rendering:geometricPrecision; text-rendering:geometricPrecision; image-rendering:optimizeQuality; fill-rule:evenodd; clip-rule:evenodd"
viewBox="0 0 4334.92 4334.92"
 xmlns:xlink="http://www.w3.org/1999/xlink"
 xmlns:xodm="http://www.corel.com/coreldraw/odm/2003">
 <defs>
  <style type="text/css">
   <![CDATA[
    .fil0 {fill:black;fill-rule:nonzero}
   ]]>
  </style>
 </defs>
 <g id="Слой_x0020_1">
  <metadata id="CorelCorpID_0Corel-Layer"/>
  <path class="fil0" d="M3955.33 2171.46c5.23,-983.9 -794.3,-1789.05 -1783.06,-1795.58 -981.08,-6.47 -1785.34,794.37 -1793.09,1785.5 -7.7,983.99 796.39,1793.74 1785.09,1797.65 983.13,3.88 1785.79,-797.21 1791.06,-1787.57zm-1664.06 2117.03l-248.07 0c-13.39,-2.51 -26.71,-5.5 -40.17,-7.46 -92.51,-13.38 -186.27,-20.87 -277.36,-40.71 -506.78,-110.31 -920.6,-372.18 -1236.21,-783.59 -339.76,-442.9 -481.01,-947.16 -427.72,-1502.02 43.03,-448.12 216.35,-844.06 513.82,-1182.32 328.18,-373.18 737.4,-605.65 1226.98,-692.95 79.64,-14.22 160.4,-22.17 240.66,-33.01l248.07 0c10.64,2.34 21.17,6.06 31.92,6.81 331.13,23.44 640.88,118.32 923.56,291.86 548.49,336.74 885.78,822.37 1004.4,1457.43 14.86,79.49 22.17,160.39 32.98,240.64l0 248.55c-3.38,29.81 -6.83,59.61 -10.13,89.42 -50.64,456.44 -224.77,859.02 -531.71,1200.41 -325.92,362.48 -729.86,588.72 -1210.43,673.93 -79.64,14.13 -160.36,22.15 -240.59,33.01zm-288.67 -2300.86c0,-19.88 0,-34.73 0,-49.58 0,-197.38 -0.38,-394.79 0.18,-592.17 0.26,-87.41 46.84,-152.5 120.85,-172.3 109.75,-29.35 207.31,49.62 207.94,170.71 1.03,197.39 0.29,394.78 0.29,592.18 0.01,14.98 0,29.97 0,51.16l50.48 0c194.25,0 388.51,-0.31 582.76,0.15 90,0.2 151.33,39.29 176.08,110.15 38.13,109.2 -39.93,217.68 -159.57,218.41 -199.75,1.2 -399.52,0.36 -599.28,0.38 -14.93,0 -29.88,0 -50.46,0l0 46.5c-0.01,198.78 0.48,397.55 -0.22,596.32 -0.36,102.34 -65.58,174.76 -157.43,177.68 -99.1,3.17 -170.75,-69.29 -171.35,-176.1 -0.93,-165.63 -0.26,-331.28 -0.27,-496.92 0,-46.9 0,-93.79 0,-147.48 -15.95,0 -30.35,0 -44.74,0 -203.9,-0.06 -407.8,0.76 -611.68,-0.59 -84.73,-0.57 -150.02,-60.85 -161.23,-143.23 -10.21,-75.17 36.21,-151.54 109.79,-174.16 27.07,-8.33 56.86,-10.51 85.45,-10.64 188.74,-0.89 377.47,-0.47 566.22,-0.47l56.19 0z"/>
 </g>
</svg>
