<?xml version="1.0" encoding="UTF-8"?>
<!DOCTYPE svg PUBLIC "-//W3C//DTD SVG 1.1//EN" "http://www.w3.org/Graphics/SVG/1.1/DTD/svg11.dtd">
<!-- Creator: CorelDRAW 2021 (64-Bit) -->
<svg xmlns="http://www.w3.org/2000/svg" xml:space="preserve" width="43.3492mm" height="43.3492mm" version="1.1" style="shape-rendering:geometricPrecision; text-rendering:geometricPrecision; image-rendering:optimizeQuality; fill-rule:evenodd; clip-rule:evenodd"
viewBox="0 0 4334.92 4334.92"
 xmlns:xlink="http://www.w3.org/1999/xlink"
 xmlns:xodm="http://www.corel.com/coreldraw/odm/2003">
 <defs>
  <style type="text/css">
   <![CDATA[
    .fil0 {fill:black;fill-rule:nonzero}
   ]]>
  </style>
 </defs>
 <g id="Слой_x0020_1">
  <metadata id="CorelCorpID_0Corel-Layer"/>
  <path class="fil0" d="M2167.39 3954.75c989.21,0.69 1782.84,-791.73 1787.82,-1785.07 4.95,-987.34 -796.35,-1789.55 -1787.47,-1789.5 -989.24,0.06 -1784.65,794.05 -1788.17,1785.01 -3.52,987.71 796.86,1788.86 1787.82,1789.56zm115.82 329.38l-231.51 0c-13.33,-2.5 -26.59,-5.66 -40.03,-7.4 -79.09,-10.25 -159.01,-16.1 -237.23,-30.87 -424.45,-80.11 -791.62,-272.21 -1097.65,-576.64 -317.52,-315.86 -517.46,-695.03 -593.49,-1137.55 -13.67,-79.57 -21.81,-160.09 -32.51,-240.18l0 -248.05c6.42,-54.29 11.82,-108.72 19.4,-162.85 59.02,-421.77 227.5,-794.31 510.32,-1112.64 328.77,-370.04 738.03,-599.36 1226.46,-684.37 81.03,-14.1 163.14,-22.01 244.73,-32.78l231.51 0c55.84,6.42 111.84,11.62 167.49,19.43 415.42,58.36 784.88,220.66 1101.5,496.64 378.95,330.32 613.18,744.06 699.68,1239.96 13.67,78.36 21.64,157.71 32.24,236.61l0 248.05c-6.42,54.48 -11.72,109.12 -19.49,163.41 -59.24,413.76 -221.27,781.84 -496.52,1097.21 -331.55,379.88 -746.49,614.52 -1244.2,699.92 -79.72,13.69 -160.43,21.55 -240.7,32.1zm-118.26 -2706.28c140.21,0 280.43,0.01 420.64,-0.03 9.08,-0.01 18.22,0.03 27.25,-0.88 33.69,-3.37 58.68,-29.71 60.28,-63.04 1.67,-35.22 -20.52,-64.16 -54.64,-70.17 -10.38,-1.82 -21.11,-2.19 -31.67,-2.2 -279.68,-0.11 -559.34,-0.11 -839,0.02 -11.32,0.01 -22.83,0.49 -33.9,2.6 -28.56,5.44 -49.55,29.5 -52.19,58.32 -4.08,44.63 26.01,75.14 75.77,75.25 142.49,0.31 284.97,0.1 427.46,0.13zm809.95 1617.35l0 -301.67 -30.48 0c-470.63,0 -941.25,-0.02 -1411.86,0.06 -12.12,0 -24.26,0.37 -36.34,1.25 -92.66,6.78 -157.29,99.75 -131.6,189.08 20.13,69.94 77.33,111.2 155.54,111.21 478.19,0.12 956.4,0.07 1434.6,0.07 6.01,0 12.02,0 20.14,0zm83.82 136.43l-1582.78 0c-1.99,-1.06 -3.86,-2.65 -5.98,-3.08 -159.94,-32.89 -248.21,-141.06 -248.21,-304.52 -0.02,-571.38 -0.09,-1142.75 0.28,-1714.14 0.01,-25.61 1.37,-51.79 6.63,-76.75 29.13,-138.58 144.44,-229.7 289.88,-229.74 502.52,-0.17 1005.02,-0.08 1507.53,-0.06 62.45,0 86.71,24.17 86.71,86.48 0.02,718.39 -0.14,1436.78 0.41,2155.16 0.02,42.05 -13.84,71.86 -54.47,86.65z"/>
 </g>
</svg>
