<?xml version="1.0" encoding="UTF-8"?>
<!DOCTYPE svg PUBLIC "-//W3C//DTD SVG 1.1//EN" "http://www.w3.org/Graphics/SVG/1.1/DTD/svg11.dtd">
<!-- Creator: CorelDRAW 2021 (64-Bit) -->
<svg xmlns="http://www.w3.org/2000/svg" xml:space="preserve" width="43.3492mm" height="43.3492mm" version="1.1" style="shape-rendering:geometricPrecision; text-rendering:geometricPrecision; image-rendering:optimizeQuality; fill-rule:evenodd; clip-rule:evenodd"
viewBox="0 0 4334.92 4334.92"
 xmlns:xlink="http://www.w3.org/1999/xlink"
 xmlns:xodm="http://www.corel.com/coreldraw/odm/2003">
 <defs>
  <style type="text/css">
   <![CDATA[
    .fil0 {fill:black;fill-rule:nonzero}
   ]]>
  </style>
 </defs>
 <g id="Слой_x0020_1">
  <metadata id="CorelCorpID_0Corel-Layer"/>
  <path class="fil0" d="M2999.47 1121.44c-1.09,158.51 -130.29,286.34 -288.16,285.08 -158.25,-1.26 -285.88,-130.98 -284.21,-288.82 1.69,-158.74 130.45,-284.92 289.25,-283.43 157.15,1.46 284.2,130.33 283.12,287.17zm-701.5 2379.23c-3.11,-1.46 -6.09,-3.41 -9.36,-4.29 -110.36,-29.66 -162.64,-131.04 -120.66,-236.99 52.01,-131.31 105.44,-262.07 158,-393.18 8.64,-21.54 25.54,-45.84 21.09,-64.77 -4.11,-17.45 -31.47,-29.76 -49.11,-43.7 -77.01,-60.87 -154.2,-121.53 -231.37,-182.19 -8.03,-6.3 -16.41,-12.18 -26.27,-19.46 -38.14,64.32 -76.67,126.06 -111.95,189.58 -39.95,71.92 -99.43,103.97 -181.36,103.49 -221.76,-1.29 -443.54,-0.32 -665.3,-0.5 -89.82,-0.07 -156.44,-48.13 -178.06,-127.61 -29.4,-108.11 49.94,-214.43 163.51,-215.26 193.05,-1.4 386.12,-0.62 579.2,-0.21 16.13,0.02 26.59,-3.1 35.42,-18.56 157.52,-275.61 315.7,-550.84 473.7,-826.17 2.92,-5.08 5.38,-10.42 9.33,-18.16 -10.01,-0.59 -17.39,-1.41 -24.77,-1.41 -91.32,-0.1 -182.64,0.45 -273.94,-0.51 -17.96,-0.18 -27.68,5.27 -36.27,21.14 -52.07,96.06 -104.53,191.93 -158.33,287.03 -34.72,61.34 -103.08,94.57 -168.93,85.37 -72.82,-10.16 -127.92,-57.58 -146.26,-126.69 -11.38,-42.9 -7.05,-84.76 14.24,-123.63 73.33,-133.85 146.56,-267.78 221.61,-400.69 31.9,-56.51 83.68,-85.04 148.62,-85.32 182.62,-0.77 365.26,-0.09 547.89,-0.69 14.64,-0.05 20.85,5.44 27.29,17.6 83.56,157.73 215.2,240.25 393.69,247.37 16.3,0.64 24.53,6.72 32.73,19.42 49.91,77.26 100.56,154.05 151.01,230.95 4.7,7.17 9.74,14.14 16.33,23.68 29.21,-16.16 57.75,-31.98 86.35,-47.75 64.61,-35.64 128.43,-72.81 194.08,-106.46 73.85,-37.84 163.08,-15.51 212.62,49.92 48.77,64.42 46.24,155.16 -8.18,215.92 -14.74,16.45 -33.59,30.46 -52.96,41.34 -131.68,74.02 -263.85,147.18 -396.19,220.04 -92.36,50.86 -184.37,27.79 -242.6,-60.22 -45.96,-69.46 -91.49,-139.22 -137.23,-208.83 -0.94,-1.44 -2.17,-2.69 -6.22,-7.62 -79.51,135.28 -158.22,269.16 -238.17,405.17 13.22,10.65 25.78,20.96 38.54,31.01 98.98,77.91 198.04,155.72 296.98,233.66 74.04,58.34 93.49,131.58 58.04,219.71 -70.81,176.06 -143.8,351.3 -211.89,528.4 -28.23,73.42 -68.3,129.36 -147.49,150.07l-57.4 0zm-130.58 454.07c989.21,0.7 1782.84,-791.73 1787.82,-1785.07 4.96,-987.34 -796.35,-1789.55 -1787.48,-1789.49 -989.23,0.05 -1784.64,794.04 -1788.17,1785 -3.51,987.7 796.86,1788.87 1787.83,1789.56zm115.83 329.39l-231.52 0c-13.33,-2.51 -26.6,-5.66 -40.03,-7.4 -79.1,-10.26 -159.01,-16.1 -237.23,-30.87 -424.45,-80.11 -791.62,-272.21 -1097.65,-576.65 -317.52,-315.87 -517.46,-695.04 -593.48,-1137.55 -13.68,-79.57 -21.82,-160.09 -32.52,-240.18l0 -248.05c6.42,-54.29 11.82,-108.73 19.4,-162.85 59.02,-421.77 227.5,-794.3 510.32,-1112.64 328.77,-370.04 738.03,-599.35 1226.46,-684.37 81.03,-14.1 163.14,-22.01 244.73,-32.78l231.52 0c55.83,6.42 111.84,11.62 167.48,19.43 415.42,58.37 784.88,220.66 1101.5,496.64 378.95,330.32 613.19,744.06 699.68,1239.96 13.67,78.36 21.64,157.72 32.25,236.61l0 248.05c-6.44,54.47 -11.73,109.12 -19.5,163.41 -59.23,413.75 -221.27,781.84 -496.52,1097.21 -331.55,379.88 -746.5,614.53 -1244.2,699.92 -79.72,13.69 -160.44,21.55 -240.69,32.11z"/>
 </g>
</svg>
