<?xml version="1.0" encoding="UTF-8"?>
<!DOCTYPE svg PUBLIC "-//W3C//DTD SVG 1.1//EN" "http://www.w3.org/Graphics/SVG/1.1/DTD/svg11.dtd">
<!-- Creator: CorelDRAW 2021 (64-Bit) -->
<svg xmlns="http://www.w3.org/2000/svg" xml:space="preserve" width="43.3492mm" height="43.3492mm" version="1.1" style="shape-rendering:geometricPrecision; text-rendering:geometricPrecision; image-rendering:optimizeQuality; fill-rule:evenodd; clip-rule:evenodd"
viewBox="0 0 4334.92 4334.92"
 xmlns:xlink="http://www.w3.org/1999/xlink"
 xmlns:xodm="http://www.corel.com/coreldraw/odm/2003">
 <defs>
  <style type="text/css">
   <![CDATA[
    .fil0 {fill:black;fill-rule:nonzero}
   ]]>
  </style>
 </defs>
 <g id="Слой_x0020_1">
  <metadata id="CorelCorpID_0Corel-Layer"/>
  <path class="fil0" d="M2167.38 3954.74c989.21,0.69 1782.84,-791.73 1787.82,-1785.07 4.96,-987.34 -796.35,-1789.55 -1787.48,-1789.49 -989.23,0.05 -1784.64,794.04 -1788.17,1785 -3.51,987.7 796.86,1788.87 1787.83,1789.56zm115.83 329.39l-231.52 0c-13.33,-2.51 -26.6,-5.66 -40.03,-7.4 -79.1,-10.26 -159.01,-16.1 -237.23,-30.87 -424.45,-80.11 -791.62,-272.22 -1097.65,-576.65 -317.52,-315.87 -517.46,-695.04 -593.48,-1137.55 -13.68,-79.57 -21.82,-160.09 -32.51,-240.18l0 -248.05c6.41,-54.29 11.81,-108.73 19.39,-162.85 59.02,-421.77 227.5,-794.3 510.32,-1112.64 328.77,-370.04 738.03,-599.35 1226.46,-684.37 81.03,-14.1 163.14,-22.01 244.73,-32.78l231.52 0c55.83,6.42 111.84,11.62 167.48,19.43 415.42,58.37 784.88,220.66 1101.5,496.64 378.95,330.32 613.19,744.06 699.68,1239.96 13.67,78.36 21.64,157.72 32.25,236.61l0 248.05c-6.44,54.47 -11.73,109.12 -19.5,163.41 -59.23,413.75 -221.27,781.84 -496.52,1097.2 -331.55,379.89 -746.5,614.53 -1244.2,699.93 -79.72,13.69 -160.44,21.55 -240.69,32.11zm-111.25 -1903.04c-10.39,15.71 -16.95,30.3 -27.52,40.91 -139.93,140.57 -280.02,281 -420.95,420.58 -69.68,69.02 -158.82,76.74 -227.18,22.1 -71.12,-56.82 -83.13,-156.79 -26.91,-228.48 11,-14.02 23.65,-26.87 36.29,-39.5 135.41,-135.37 270.97,-270.58 406.43,-405.89 10.61,-10.58 20.74,-21.64 34.65,-36.2 -29.99,-28.84 -59,-55.91 -87.09,-83.89 -124.92,-124.43 -250.09,-248.61 -374.09,-373.95 -54.52,-55.14 -66.29,-126.08 -35.48,-189.8 30.32,-62.71 96.37,-103.97 165.57,-89.62 39.16,8.12 80.64,30.37 109.56,58.23 141.88,136.59 279.88,277.21 419.31,416.35 10.51,10.5 21.45,20.57 38.03,36.43 32.02,-34.58 60.92,-67.78 91.91,-98.91 120.49,-121.07 240.62,-242.51 362.87,-361.78 95.96,-93.63 241.57,-59.2 277.52,64.38 20.15,69.28 -3.94,126.15 -53.78,175.56 -138.89,137.71 -276.93,276.31 -415.62,414.24 -10.68,10.61 -23.97,18.62 -38.82,29.96 16.19,16.96 26.2,27.88 36.66,38.35 141.29,141.17 283.22,281.71 423.75,423.63 79.47,80.26 70.95,198.7 -16.26,257.79 -68.85,46.67 -151.86,36.68 -217.48,-28.14 -97.99,-96.79 -195.14,-194.47 -292.46,-291.95 -53.4,-53.48 -106.43,-107.33 -168.91,-170.4z"/>
 </g>
</svg>
