<?xml version="1.0" encoding="UTF-8"?>
<!DOCTYPE svg PUBLIC "-//W3C//DTD SVG 1.1//EN" "http://www.w3.org/Graphics/SVG/1.1/DTD/svg11.dtd">
<!-- Creator: CorelDRAW 2021 (64-Bit) -->
<svg xmlns="http://www.w3.org/2000/svg" xml:space="preserve" width="43.3492mm" height="43.3492mm" version="1.1" style="shape-rendering:geometricPrecision; text-rendering:geometricPrecision; image-rendering:optimizeQuality; fill-rule:evenodd; clip-rule:evenodd"
viewBox="0 0 4334.92 4334.92"
 xmlns:xlink="http://www.w3.org/1999/xlink"
 xmlns:xodm="http://www.corel.com/coreldraw/odm/2003">
 <defs>
  <style type="text/css">
   <![CDATA[
    .fil0 {fill:black;fill-rule:nonzero}
   ]]>
  </style>
 </defs>
 <g id="Слой_x0020_1">
  <metadata id="CorelCorpID_0Corel-Layer"/>
  <path class="fil0" d="M2167.39 3954.75c989.21,0.69 1782.84,-791.73 1787.82,-1785.07 4.95,-987.34 -796.35,-1789.55 -1787.47,-1789.5 -989.24,0.06 -1784.65,794.05 -1788.17,1785.01 -3.52,987.71 796.86,1788.86 1787.82,1789.56zm115.82 329.38l-231.51 0c-13.33,-2.5 -26.59,-5.66 -40.03,-7.4 -79.09,-10.25 -159.01,-16.1 -237.23,-30.87 -424.45,-80.11 -791.62,-272.21 -1097.65,-576.64 -317.52,-315.86 -517.46,-695.03 -593.49,-1137.55 -13.67,-79.57 -21.81,-160.09 -32.51,-240.18l0 -248.05c6.42,-54.29 11.82,-108.72 19.4,-162.85 59.02,-421.77 227.5,-794.31 510.32,-1112.64 328.77,-370.04 738.03,-599.36 1226.46,-684.37 81.03,-14.1 163.14,-22.01 244.73,-32.78l231.51 0c55.84,6.42 111.84,11.62 167.49,19.43 415.42,58.36 784.88,220.66 1101.5,496.64 378.95,330.32 613.18,744.06 699.68,1239.96 13.67,78.36 21.64,157.71 32.24,236.61l0 248.05c-6.42,54.48 -11.72,109.12 -19.49,163.41 -59.24,413.76 -221.27,781.84 -496.52,1097.21 -331.55,379.88 -746.49,614.52 -1244.2,699.92 -79.72,13.69 -160.43,21.55 -240.7,32.1zm-837.56 -1803.3l408.44 406.8 978.96 -977.31 -408.45 -406.8 -978.95 977.31zm1049.23 -1047.59l405.97 407.62c12.33,-8.52 61.88,-58.42 72.66,-71.2 31.42,-37.26 40.61,-74.77 40.61,-124.75 0,-85.62 -74.51,-142.31 -128.15,-195.96 -73.26,-73.26 -109.46,-128.16 -212.5,-128.16 -42.64,0 -82.1,19.84 -106.39,39.13 -11.56,9.19 -65.1,62.72 -72.2,73.32zm-1174.09 1531.28c0,29.86 19.75,49.61 49.61,49.61 20.62,0 175.54,-30.42 199.83,-34.99l147.69 -27.6c13.5,-2.72 39.58,-5.48 49.36,-10.18l-372.9 -374.54c-5.52,10.61 -7.98,35.06 -10.44,47.43 -3.28,16.58 -6.4,34.91 -9.38,50.15 -6.8,34.87 -12.15,65.07 -18.78,100.29 -4.99,26.51 -34.99,178.42 -34.99,199.83z"/>
 </g>
</svg>
