<?xml version="1.0" encoding="UTF-8"?>
<!DOCTYPE svg PUBLIC "-//W3C//DTD SVG 1.1//EN" "http://www.w3.org/Graphics/SVG/1.1/DTD/svg11.dtd">
<!-- Creator: CorelDRAW 2021 (64-Bit) -->
<svg xmlns="http://www.w3.org/2000/svg" xml:space="preserve" width="43.3492mm" height="43.3492mm" version="1.1" style="shape-rendering:geometricPrecision; text-rendering:geometricPrecision; image-rendering:optimizeQuality; fill-rule:evenodd; clip-rule:evenodd"
viewBox="0 0 4334.92 4334.92"
 xmlns:xlink="http://www.w3.org/1999/xlink"
 xmlns:xodm="http://www.corel.com/coreldraw/odm/2003">
 <defs>
  <style type="text/css">
   <![CDATA[
    .fil0 {fill:black;fill-rule:nonzero}
   ]]>
  </style>
 </defs>
 <g id="Слой_x0020_1">
  <metadata id="CorelCorpID_0Corel-Layer"/>
  <path class="fil0" d="M2489.99 2148.5c28.88,28.31 56.11,54.74 83.03,81.49 16.24,16.14 18.29,30.58 6.76,41.97 -11.49,11.35 -25.65,9.11 -42,-7.23 -26.82,-26.81 -53.42,-53.85 -81.22,-81.91 -26.92,26.97 -52.7,52.74 -78.4,78.6 -11.11,11.17 -23.3,16.34 -37.32,5.65 -12.84,-9.79 -12.31,-25.83 1.76,-40.14 25.61,-26.05 51.74,-51.59 78.81,-78.49 -28.69,-28.7 -57.31,-55.64 -83.55,-84.73 -6.99,-7.75 -11.16,-23.23 -8.66,-33.15 4.13,-16.4 26.7,-17.28 41.64,-2.59 28.06,27.59 55.54,55.78 85.74,86.23 22.76,-23.23 44.36,-45.89 66.67,-67.82 13.35,-13.1 29.06,-13.44 38.67,-1.48 10.98,13.67 6.68,26.22 -4.61,37.39 -21.48,21.26 -43.08,42.39 -67.32,66.21zm-797.47 41.17c25.2,24.77 48.09,47.57 71.34,70 12.66,12.2 18.5,25.34 5.96,40.48 -9.55,11.52 -25.71,9.42 -40.46,-5.07 -23.45,-23.03 -46.45,-46.55 -71.15,-71.37 -28.06,28.48 -54.54,55.6 -81.29,82.44 -15.6,15.65 -31.22,18.06 -42.08,7.15 -11.17,-11.22 -8.85,-26.13 7.17,-42.04 26.9,-26.7 54.05,-53.14 82.55,-81.11 -26.72,-26.65 -52.03,-51.87 -77.3,-77.12 -4.47,-4.47 -9.31,-8.69 -13.1,-13.69 -8.81,-11.65 -9.08,-23.86 1.81,-34.04 11,-10.3 23.46,-9.19 33.95,0.96 23.72,22.97 47.05,46.35 70.13,69.98 5.82,5.96 10.07,13.44 15.92,21.42 34.08,-34.24 64.21,-64.68 94.54,-94.91 16.05,-15.99 31.03,-18.27 41.68,-5.93 13.24,15.35 6.17,28.27 -6.1,40.33 -30.53,30.02 -60.9,60.2 -93.57,92.52zm389.04 279.75c128.85,2.18 232.89,43.04 319.32,126.44 7.23,6.99 12.38,18.64 13.36,28.63 0.55,5.64 -9.09,17.12 -14.66,17.46 -9.85,0.6 -22.87,-2.41 -29.7,-8.97 -39.6,-38 -84.1,-67.75 -135.31,-87.57 -150.26,-58.17 -316.58,-21.51 -429.22,93.99 -7.62,7.81 -19.18,15.01 -29.44,15.85 -6.55,0.54 -17.96,-10.1 -20.1,-17.72 -2.06,-7.35 2.63,-19.43 8.41,-25.69 69.1,-74.92 154.22,-120.75 255.01,-136.5 23.53,-3.67 47.49,-4.56 62.33,-5.92zm771.13 -1024.71c9.03,-20.75 15.05,-38.06 23.81,-53.84 12.87,-23.2 27.55,-45.41 41.74,-67.87 8.83,-13.95 23.68,-22.78 37.16,-14.1 15.25,9.82 7.02,24.31 -1.16,38.41 -18.86,32.5 -35.65,66.26 -52.24,100.02 -6.37,12.99 -14.78,22.2 -28.9,16.84 -8.17,-3.11 -13.82,-12.88 -20.41,-19.46zm157.92 194.92c-12.22,0.44 -27.36,-1.96 -28.98,-21.3 -1.56,-18.52 10.48,-25.39 27.79,-26.57 51.11,-3.5 102.15,-7.88 153.25,-11.35 20.14,-1.37 34.58,8.49 33.47,22.94 -1.4,18.17 -13.77,23.3 -30.72,24.38 -50.41,3.21 -100.76,7.65 -154.81,11.9zm118.8 -213.53c-2.72,3.27 -7.03,11.69 -13.9,16.19 -47.53,31.12 -95.63,61.35 -143.44,92.02 -12.21,7.83 -23.19,6.12 -31.4,-5.02 -9.15,-12.4 -5.84,-24.91 6.29,-32.86 49.3,-32.25 98.87,-64.1 148.86,-95.27 16,-9.98 34.11,1.26 33.59,24.94zm-1810.71 213.57l26.88 0c239.74,0 479.47,0.25 719.21,-0.15 65.81,-0.12 120.39,23.47 164.16,72.35 19.7,21.99 39.35,44.03 58.68,66.35 30.31,35 67.8,52.38 114.71,52.15 144.82,-0.69 289.64,-0.25 434.47,-0.25l22.6 0c0,-80.23 1.37,-156.88 -1.01,-233.41 -0.56,-18.08 -10.74,-37.88 -21.69,-53.17 -21.31,-29.77 -53.94,-37.61 -89.42,-37.99 -169.4,-1.81 -338.8,-4.03 -508.2,-6.4 -271.32,-3.78 -542.63,-7.9 -813.95,-11.63 -64.19,-0.89 -105.74,40.32 -106.41,104.44 -0.16,14.75 -0.03,29.5 -0.03,47.71zm787.98 1232.69c237.71,0 475.43,0.06 713.14,-0.05 43.56,-0.02 77.14,-28.56 81.3,-69.7 11.57,-114.69 22.65,-229.43 33.92,-344.15 13.61,-138.5 27.23,-276.99 40.84,-415.5 2.82,-28.68 5.94,-57.33 8.35,-86.05 3.65,-43.61 -33.24,-78.56 -84.65,-78.87 -90.72,-0.56 -181.45,-0.18 -272.17,-0.18 -75.96,-0.01 -151.92,-0.32 -227.88,0.09 -55.3,0.31 -101.38,-19.19 -137.84,-61.06 -18.47,-21.21 -38.29,-41.34 -55.67,-63.4 -39.11,-49.66 -89.33,-70.15 -152.52,-69.8 -244.04,1.39 -488.09,0.56 -732.13,0.59 -8.44,0 -16.9,-0.07 -25.3,0.56 -46.05,3.4 -76.86,40.11 -72.51,86.08 2.17,23.09 4.33,46.19 6.37,69.3 13.23,149.84 26.31,299.71 39.65,449.54 14.78,165.94 30.13,331.83 44.5,497.8 5.1,58.78 31.53,84.8 90,84.8 234.2,0.01 468.4,0.01 702.6,0zm789.82 25.07c20.97,1.47 36.84,2.06 52.58,3.84 12.5,1.42 25.35,2.77 37.13,6.81 34.37,11.82 41.19,47.43 10.92,67.62 -16.35,10.91 -39.02,17.06 -58.92,17.27 -274.92,2.91 -549.88,7.26 -824.78,5.34 -224.94,-1.57 -449.85,-10.22 -674.72,-17.72 -40.97,-1.37 -82.32,-9.61 -122.26,-19.61 -50.13,-12.56 -81.36,-47.9 -89.8,-98.54 -8.43,-50.48 -12.6,-101.73 -17.18,-152.78 -14.11,-157.51 -27.49,-315.09 -41.21,-472.64 -9.76,-112.04 -19.87,-224.05 -29.31,-336.11 -6.87,-81.56 17.2,-154.34 67.45,-217.9 12.13,-15.34 29.93,-27.99 47.7,-36.48 14.22,-6.79 17.73,-14.02 17.52,-28.12 -0.31,-20.31 -1.04,-41.17 2.91,-60.9 14.64,-73.06 74.97,-121.36 151.48,-120.53 208.13,2.26 416.24,5.55 624.36,8.41 232.02,3.19 464.04,6.2 696.06,9.61 99.73,1.46 160.41,63.54 160.8,163.81 0.24,62.58 0.43,125.18 -0.24,187.76 -0.16,14.33 2.71,20.75 18.7,23.01 66.68,9.39 112.3,69.07 105.61,137.46 -21.63,221.03 -43.72,442.01 -65.54,663.02 -4.9,49.66 -9.79,99.32 -13.98,149.05 -3.74,44.52 -14.2,85.84 -55.28,118.32z"/>
 </g>
</svg>
