<?xml version="1.0" encoding="UTF-8"?>
<!DOCTYPE svg PUBLIC "-//W3C//DTD SVG 1.1//EN" "http://www.w3.org/Graphics/SVG/1.1/DTD/svg11.dtd">
<!-- Creator: CorelDRAW 2021 (64-Bit) -->
<svg xmlns="http://www.w3.org/2000/svg" xml:space="preserve" width="43.3492mm" height="43.3492mm" version="1.1" style="shape-rendering:geometricPrecision; text-rendering:geometricPrecision; image-rendering:optimizeQuality; fill-rule:evenodd; clip-rule:evenodd"
viewBox="0 0 4334.92 4334.92"
 xmlns:xlink="http://www.w3.org/1999/xlink"
 xmlns:xodm="http://www.corel.com/coreldraw/odm/2003">
 <defs>
  <style type="text/css">
   <![CDATA[
    .fil0 {fill:black;fill-rule:nonzero}
   ]]>
  </style>
 </defs>
 <g id="Слой_x0020_1">
  <metadata id="CorelCorpID_0Corel-Layer"/>
  <path class="fil0" d="M1095.29 2905.38c112,112.11 221,221.22 329.42,329.74 -22.4,23.56 -44.95,51.04 -71.37,74.06 -26.9,23.44 -68.41,19.91 -95.07,-6.34 -75.94,-74.75 -151.35,-150.08 -226.09,-226.05 -30.09,-30.6 -29.13,-73.64 -0.05,-104.83 21.29,-22.84 42.97,-45.32 63.16,-66.58zm1813.37 -1810.6c20.97,-20.65 43.94,-45.42 69.22,-67.57 27.94,-24.52 69.96,-23.66 97.21,3.05 77.27,75.73 153.89,152.16 229.46,229.58 28.01,28.7 26.33,71.44 -1.04,101.04 -21.28,23.01 -43.87,44.8 -64.27,65.51 -110.34,-110.68 -219.62,-220.3 -330.58,-331.61zm-663.96 672.33c106.73,106.73 215.85,215.82 323.55,323.5 -158.8,158.8 -318.72,318.74 -477.35,477.38 -107.39,-107.37 -216.48,-216.43 -323.57,-323.5 158.27,-158.28 318.6,-318.61 477.37,-477.38zm-90.9 1420.81c-336.05,-336.06 -670.3,-670.29 -1008.56,-1008.54 20.17,-19.2 42.19,-39.85 63.83,-60.89 18.38,-17.87 35.98,-36.53 54.51,-54.23 32.04,-30.59 74.09,-30.88 106.93,-1.2 4.91,4.42 9.46,9.24 14.14,13.92 290.52,290.51 581.03,581.01 871.53,871.54 50.85,50.85 50.67,85.85 -0.47,137.08 -34.35,34.41 -68.63,68.9 -101.91,102.32zm26.9 -2041.33c337.03,337.04 671.26,671.29 1004.69,1004.74 -40.3,41.34 -80.45,85.22 -123.67,125.84 -25.37,23.86 -65.79,20.45 -93.48,-2.44 -6.36,-5.25 -11.99,-11.38 -17.84,-17.22 -291.12,-291.11 -582.24,-582.22 -873.35,-873.34 -48.73,-48.73 -48.75,-84.72 -0.19,-133.37 34.96,-35.02 69.87,-70.11 103.84,-104.21zm-1283.25 1298.27c15.85,-20.73 30.28,-42.76 47.87,-61.91 29.57,-32.19 61.15,-62.55 90.15,-91.93 336.25,336.33 670.86,671 1004.77,1004.99 -38.97,40.18 -78.84,84.17 -121.98,124.7 -26.11,24.53 -65.37,21.23 -93.27,-2.02 -6.33,-5.27 -11.91,-11.45 -17.76,-17.29 -288.71,-288.69 -577.51,-577.29 -865.85,-866.35 -16.55,-16.58 -29.37,-36.89 -43.93,-55.46l0 -34.73zm1582.35 -1547.62c18.6,14.54 38.95,27.32 55.54,43.87 289.06,288.33 577.65,577.12 866.33,865.82 47.91,47.92 47.69,84.83 -0.56,133.25 -34.38,34.5 -68.67,69.12 -100.4,101.07 -336.15,-336.12 -671.12,-671.08 -1006.47,-1006.41 37.28,-37.59 77.59,-79.02 118.99,-119.31 8.49,-8.27 21.12,-12.3 31.84,-18.29l34.73 0z"/>
 </g>
</svg>
