<?xml version="1.0" encoding="UTF-8"?>
<!DOCTYPE svg PUBLIC "-//W3C//DTD SVG 1.1//EN" "http://www.w3.org/Graphics/SVG/1.1/DTD/svg11.dtd">
<!-- Creator: CorelDRAW 2021 (64-Bit) -->
<svg xmlns="http://www.w3.org/2000/svg" xml:space="preserve" width="43.3492mm" height="43.3492mm" version="1.1" style="shape-rendering:geometricPrecision; text-rendering:geometricPrecision; image-rendering:optimizeQuality; fill-rule:evenodd; clip-rule:evenodd"
viewBox="0 0 4334.92 4334.92"
 xmlns:xlink="http://www.w3.org/1999/xlink"
 xmlns:xodm="http://www.corel.com/coreldraw/odm/2003">
 <defs>
  <style type="text/css">
   <![CDATA[
    .fil0 {fill:black;fill-rule:nonzero}
   ]]>
  </style>
 </defs>
 <g id="Слой_x0020_1">
  <metadata id="CorelCorpID_0Corel-Layer"/>
  <path class="fil0" d="M2167.39 3954.75c989.21,0.69 1782.84,-791.73 1787.82,-1785.07 4.95,-987.34 -796.35,-1789.55 -1787.47,-1789.5 -989.24,0.06 -1784.65,794.05 -1788.17,1785.01 -3.52,987.71 796.86,1788.86 1787.82,1789.56zm115.82 329.38l-231.51 0c-13.33,-2.5 -26.59,-5.66 -40.03,-7.4 -79.09,-10.25 -159.01,-16.1 -237.23,-30.87 -424.45,-80.11 -791.62,-272.21 -1097.65,-576.64 -317.52,-315.86 -517.46,-695.03 -593.49,-1137.55 -13.67,-79.57 -21.81,-160.09 -32.51,-240.18l0 -248.05c6.42,-54.29 11.82,-108.72 19.4,-162.85 59.02,-421.77 227.5,-794.31 510.32,-1112.64 328.77,-370.04 738.03,-599.36 1226.46,-684.37 81.03,-14.1 163.14,-22.01 244.73,-32.78l231.51 0c55.84,6.42 111.84,11.62 167.49,19.43 415.42,58.36 784.88,220.66 1101.5,496.64 378.95,330.32 613.18,744.06 699.68,1239.96 13.67,78.36 21.64,157.71 32.24,236.61l0 248.05c-6.42,54.48 -11.72,109.12 -19.49,163.41 -59.24,413.76 -221.27,781.84 -496.52,1097.21 -331.55,379.88 -746.49,614.52 -1244.2,699.92 -79.72,13.69 -160.43,21.55 -240.7,32.1zm-1033.52 -1824.56l0 649.89c0,122.62 120.15,243.08 282.77,243.08l386.95 0c11.44,0 14.89,-3.45 14.89,-14.88l0 -635 466.32 0 0 635c0,11.43 3.45,14.88 14.89,14.88l386.95 0c74.78,0 140.91,-20.44 194.69,-68.23 38.55,-34.27 88.08,-104.99 88.08,-174.85l0 -649.89c0,-33.97 -70.43,-92.74 -102.93,-125.26l-741.66 -741.67c-86.18,-87 -123,-23.34 -203.41,57.06l-741.65 741.66c-16.74,16.73 -45.89,38.34 -45.89,68.21zm-352.23 -317.49c0,96.05 62.36,158.75 128.98,158.75 97.31,0 112.18,-30.32 189.76,-107.91l868.16 -868.16c70.54,-70.54 95.66,-70.54 166.2,0 128,128.02 898.11,904.8 938.81,936.43 47.18,36.66 53.64,39.64 119.11,39.64 66.62,0 128.98,-62.7 128.98,-158.75 0,-64.34 -69.95,-117.09 -105.42,-152.55l-292.7 -292.69c-45.52,-44.98 -28.52,-41.61 -28.52,-169.92 0,-85.99 -0.02,-171.98 0,-257.97 0.01,-53.03 2.23,-75.14 -16.42,-112.56 -52.23,-104.77 -193.36,-99.96 -248.69,-18.6 -40.04,58.87 -27.58,142.66 -27.58,235.34 -20.78,-13.91 -180.32,-177.83 -212.08,-209.6 -86.62,-86.62 -118.1,-136.31 -251.18,-170.5 -126.22,-32.43 -254.09,14.29 -326.37,71.68 -31.86,25.3 -73.73,72.92 -104.58,103.78l-843.36 843.36c-30.62,30.61 -83.1,72.2 -83.1,130.23z"/>
 </g>
</svg>
