<?xml version="1.0" encoding="UTF-8"?>
<!DOCTYPE svg PUBLIC "-//W3C//DTD SVG 1.1//EN" "http://www.w3.org/Graphics/SVG/1.1/DTD/svg11.dtd">
<!-- Creator: CorelDRAW 2021 (64-Bit) -->
<svg xmlns="http://www.w3.org/2000/svg" xml:space="preserve" width="43.3492mm" height="43.3492mm" version="1.1" style="shape-rendering:geometricPrecision; text-rendering:geometricPrecision; image-rendering:optimizeQuality; fill-rule:evenodd; clip-rule:evenodd"
viewBox="0 0 4334.92 4334.92"
 xmlns:xlink="http://www.w3.org/1999/xlink"
 xmlns:xodm="http://www.corel.com/coreldraw/odm/2003">
 <defs>
  <style type="text/css">
   <![CDATA[
    .fil0 {fill:black;fill-rule:nonzero}
   ]]>
  </style>
 </defs>
 <g id="Слой_x0020_1">
  <metadata id="CorelCorpID_0Corel-Layer"/>
  <path class="fil0" d="M2684.49 2995c-35.75,23.29 -69.89,49.72 -107.65,69.05 -41.69,21.33 -58.77,55.52 -65.4,97.92 -2.12,13.52 -0.34,27.67 -0.34,46.51 -15.39,-11.45 -30.45,-19.16 -40.87,-30.99 -44.44,-50.46 -102.33,-62.16 -166.14,-69.91 -177.54,-21.59 -328.9,-96.26 -442.84,-237.93 -30.03,-37.33 -51.69,-79.6 -65.76,-125.53 -1.48,-4.82 -2.1,-9.89 -0.58,-16.03 9.69,13.3 19.06,26.86 29.16,39.85 65.29,83.95 150.62,141.41 245.71,186.19 106.62,50.21 218.92,75.41 336.54,76.42 92.26,0.8 182.45,-13.79 270.79,-40.23 1.53,-0.45 3.21,-0.41 4.83,-0.6 0.84,1.75 1.7,3.52 2.55,5.28zm479.06 800.89c-28.85,-45.43 -56.98,-91.34 -85.97,-136.7 -31.56,-49.41 -76.23,-77.46 -135.8,-76.84 -50.98,0.53 -95.81,18.97 -135.53,51 -15.87,12.81 -23.7,28.16 -22.08,48.07 1.07,13.24 2.52,26.58 5.34,39.53 13.15,60.48 35.89,117.9 65.36,171.67 15.1,27.57 31.02,54.69 47.28,81.64 -41.42,24.17 -83.69,47.06 -126.77,68.61 -4.42,-8.03 -8.49,-16.4 -12.35,-25.12 -41.34,-93.16 -83.5,-185.96 -125.61,-278.77 -7.65,-16.86 -16.75,-33.05 -24.94,-49.67 -6.16,-12.52 -15.63,-19.37 -29.83,-20.4 -64.71,-4.66 -129.36,-10.01 -194.09,-14.38 -121.55,-8.2 -242.63,-19.17 -359.64,-56.16 -64.45,-20.38 -123.34,-52.86 -182.36,-84.89 -85.09,-46.16 -167.75,-96.24 -245.78,-153.67 -122.4,-90.07 -229.59,-194.33 -309.49,-325.17 -10.51,-17.22 -31.53,-28.17 -48.12,-41.47 -45.1,-36.18 -92.37,-69.91 -135.13,-108.63 -45.01,-40.76 -85.92,-86.05 -128.41,-129.57 -29.46,-30.16 -47.97,-66.36 -57.7,-107.21l0 -55.77c10.69,-22.79 17.76,-48.39 32.82,-67.8 33.99,-43.81 56.59,-92.23 72.68,-144.67 32.85,-107.13 73.64,-211.09 127.92,-309.35 36.43,-65.96 74.54,-131.06 131.14,-182.38 96.92,-87.91 194.42,-175.2 291.89,-262.53 62.54,-56.05 125.87,-111.2 188.07,-167.62 55.28,-50.16 110.47,-100.51 163.88,-152.63 48.47,-47.29 97.69,-94.44 140.72,-146.49 45.86,-55.47 98.18,-101.02 164.47,-127.03 46.6,-18.28 96.24,-29.24 145.02,-41.45 91.85,-23 184.56,-37.8 280.05,-38.23 47.91,-0.21 95.76,-14.61 143.64,-22.58l83.65 0c31.18,8.23 63.65,13.29 93.22,25.44 41.61,17.08 71.05,48.6 78.78,94.55 8.69,51.67 35.01,95.11 59.54,139.72 29.94,54.46 57.8,109.96 69.48,171.75 7.94,42 4.69,81.55 -26.51,115.36 -16.38,17.76 -27.79,40.49 -45.42,56.65 -36.26,33.25 -83.02,39.55 -129.86,41.16 -87.56,3.02 -173.09,-14.02 -258.77,-28.78 -38.8,-6.67 -77.54,-13.72 -116.4,-20.04 -36.76,-5.99 -66.62,-25.55 -95.97,-46.71 -50.19,-36.19 -63.4,-44.25 -128.37,1.77 -57.76,40.92 -95.24,98.72 -125.74,161.54 -38.68,79.68 -76.85,159.63 -117.13,238.5 -21.99,43.09 -30.59,88.14 -31.33,135.71 -2.04,130.6 -39.13,253.31 -85.23,373.91 -2.37,6.22 -4.73,12.43 -7.62,20.03 39.58,-6.37 76.33,-14 113.48,-18 136.9,-14.74 264.51,8.29 374.86,96.84 42.5,34.11 76.83,75.41 103.75,122.69 5.7,10.02 10.61,13.65 22.96,10 100.46,-29.59 203.07,-47.8 307.68,-52.72 103.07,-4.87 203.65,9.06 300.9,44.65 80.69,29.52 155.23,69.96 220.53,126.09 22.33,19.22 42.72,40.77 63.2,62.02 7.97,8.26 13.38,11.67 26.22,6.94 72.97,-26.84 148.34,-41.02 225.05,-21.12 32.78,8.5 64.38,20.67 94.48,35.9 -7.98,21.18 -16.26,42.21 -24.85,63.08 -25.46,-11.36 -50.25,-23.71 -74.22,-34.88 -14.98,81.45 -29.31,159.3 -44.29,240.77 -8.5,-7.35 -12.87,-10.99 -17.09,-14.8 -55.01,-49.71 -111.59,-97.81 -164.41,-149.75 -33.71,-33.15 -59.69,-74.09 -92.84,-107.9 -79.44,-80.98 -177.39,-131.16 -285.47,-162.51 -63.45,-18.41 -128.94,-27.49 -194.43,-24.61 -67.58,2.98 -134.89,13.65 -202.16,22.13 -43.08,5.44 -69.14,32.2 -77.34,74.83 -8.03,41.69 -2.01,82.12 10.3,121.9 6.96,22.46 15.42,44.46 23.19,66.65 -56.08,-62.25 -102.67,-130.51 -145.87,-201.32 -29.84,-48.91 -58.75,-98.85 -93.34,-144.31 -66,-86.71 -160.59,-115.36 -264.96,-119.79 -116.83,-4.96 -225.73,28.99 -333.35,68.65 -68.48,25.26 -136.09,52.98 -205.22,76.26 -38.6,12.99 -79.49,19.19 -119.35,28.45 -0.58,-1.9 -1.16,-3.8 -1.74,-5.7 75.9,-27.03 151.49,-54.68 214.89,-106.59 -60.48,22.15 -123.05,32.57 -186.91,37.43 -70.97,5.42 -165.09,2 -190.61,-8.17 0.33,-0.4 0.62,-1.13 0.99,-1.18 3.98,-0.53 7.97,-1.1 11.99,-1.39 106.72,-7.77 208.95,-32.63 307.85,-74.33 76.65,-32.32 136.14,-83.85 173.98,-155.56 26.21,-49.65 40.9,-105.64 58.21,-159.61 8.61,-26.82 13.2,-55.26 16.48,-83.33 2.36,-20.12 -8,-27.19 -28.1,-23.65 -5.7,1.01 -11.37,2.59 -16.78,4.61 -42.93,15.9 -85.54,32.68 -128.73,47.79 -43.75,15.3 -89.01,24.01 -135.68,26.26 2.22,-2.92 4.81,-4.88 7.68,-6.29 44.19,-21.69 89.24,-41.81 132.47,-65.27 73.83,-40.06 140.52,-88.78 192.41,-156.9 66.86,-87.77 127.33,-179.62 182.61,-274.88 21.75,-37.46 40.17,-77.05 57.46,-116.84 9.65,-22.18 -9.77,-45.59 -34.02,-43.78 -10.8,0.81 -22.36,2.9 -31.87,7.76 -57.24,29.27 -113.89,59.74 -170.99,89.3 -21.27,11.03 -43.23,20.7 -64.87,30.99 -0.87,-1.59 -1.75,-3.17 -2.62,-4.76 17.29,-12.35 34.27,-25.15 51.93,-36.96 80.94,-54.17 161.85,-108.39 243.26,-161.84 21.76,-14.3 33.87,-32.91 34.35,-58.67 0.46,-26.11 -0.61,-52.25 0.41,-78.32 1.14,-28.99 3.88,-57.91 5.92,-86.86 2.02,0.12 4.04,0.25 6.08,0.36 0.27,2.02 0.87,4.05 0.78,6.06 -1.69,40.66 5.4,79.98 21.15,117.2 21.93,51.87 25.56,58.5 86.78,64.39 17.26,1.68 34.89,1.36 52.22,0.13 55.19,-3.85 108.2,-16.29 153.33,-49.93 18.01,-13.45 32.38,-31.82 48.64,-48.18 13.16,10.15 16.24,25.63 15.31,41.51 -3.05,52.26 -7.33,71.03 -63.09,66.76 -7.12,-0.54 -17.07,2.43 -21.62,7.47 -18.1,20.05 -12.47,47.96 10.56,62.45 55.12,34.75 169.73,11.18 192.4,-63.73 5.03,-16.63 9.74,-33.52 12.51,-50.63 5.89,-36.51 10.41,-73.26 15.49,-109.91 4.94,26.17 7.84,52.44 9.18,78.79 2.54,49.91 3.67,99.48 -19.19,146.58 -4.17,8.58 -0.94,25.03 5.07,33.41 14.41,20.13 42.96,15.24 56.1,-11.24 11.94,-24.05 22.5,-50.28 26.23,-76.61 9.03,-63.71 13.7,-128.02 20.21,-192.09 0.59,-5.76 1.67,-11.47 2.53,-17.2 5.81,31.5 9.86,62.56 11.78,93.77 3.98,64.78 11.58,129.65 -2.51,194.28 -6.33,28.99 13.98,47.66 42.38,38.71 8.59,-2.7 16.95,-7.73 24.01,-13.42 26.24,-21.14 35.41,-52.43 33.65,-82.51 -3.49,-60.01 -13.82,-119.6 -20.63,-179.45 -4.39,-38.67 -7.55,-77.49 -11.27,-116.24 1.69,-0.19 3.38,-0.38 5.06,-0.55 1.51,7.22 2.93,14.47 4.52,21.67 6.29,28.3 11.66,56.86 19.16,84.84 19.57,73 52.24,142.85 50.07,220.99 -0.53,18.91 30.83,38.22 41.4,26.92 17.93,-19.15 35.94,-38.39 31.28,-69.79 -8.13,-54.65 -32.05,-102.83 -57.45,-150.31 -29.54,-55.17 -62.93,-108.14 -73.14,-171.77 -5.53,-34.42 -47.8,-59.45 -77.35,-58.65 -2.37,19.28 -4.71,38.17 -7.21,58.38 -13.61,-19.21 -23.9,-37.35 -37.68,-52.24 -15.23,-16.45 -36.04,-18.14 -57.68,-13.12 15.19,35.23 10.25,68.46 -2.7,103.63 -5.67,-16.31 -9.33,-29.78 -14.94,-42.38 -14.21,-31.93 -52.99,-50.72 -87.55,-45.79 -25.77,3.66 -51.97,4.34 -77.99,6.19 -38.18,2.73 -76.85,2.39 -114.44,8.67 -57.09,9.53 -113.4,23.71 -170.08,35.75 -58.54,12.45 -114.37,32.56 -160.82,70.73 -27.89,22.91 -50.15,52.58 -75.72,78.45 -58.21,58.93 -116.71,117.61 -175.5,175.98 -35.71,35.45 -73.17,69.2 -108.1,105.38 -52.27,54.13 -102.11,110.64 -154.63,164.51 -91.87,94.23 -185.97,186.28 -277.19,281.12 -44.12,45.9 -84.62,95.67 -114.22,152.61 -22.68,43.62 -42.72,88.65 -63.23,133.37 -29.71,64.78 -61.64,128.78 -75.82,199.47 -9.68,48.27 -7.99,95.09 22.11,136.59 23.01,31.74 55.28,52.51 90.13,69.13 24.36,11.63 49.3,22.02 78.2,34.84 -26.69,5.22 -48.97,11.28 -71.63,13.56 -25.25,2.53 -50.86,1.99 -76.31,2.09 -16.54,0.08 -31.59,3.45 -41.33,17.73 -9.72,14.24 -6.6,29.63 2.21,42.56 10.37,15.23 21.59,30.51 35.13,42.81 66.74,60.57 144.27,100.53 233.54,115.26 95.58,15.76 191.46,29.63 287.07,45.07 27.74,4.47 55.06,11.51 82.57,17.36 -38.32,7.58 -76.14,11.61 -113.73,17.25 -42.42,6.36 -85.15,12.83 -122.96,35.06 -29.08,17.1 -34.09,36.72 -13.68,63.15 20.44,26.48 42.2,52.54 66.76,75.11 78.74,72.37 167.8,129.35 267.4,168.83 81.2,32.2 165.88,51.88 252.13,64.74 94.08,14.02 188.28,19.09 282.14,-1.9 49.34,-11.04 95.51,-28.85 131.46,-66.46 7.31,-7.67 13.72,-16.19 21.55,-25.51 29.58,46.89 70.28,77.83 119.22,97.07 60.34,23.71 122.64,34.02 187.48,20.36 18.33,-3.85 27.28,-14.47 23.97,-31.76 -5.31,-27.77 -11.68,-55.53 -20.36,-82.38 -19.62,-60.64 -41.84,-120.62 -47.9,-184.59 -2.25,-23.66 -0.37,-47.71 -0.37,-71.59 12.93,20.82 20.71,43.08 31.36,63.86 18.42,35.95 34.99,73.71 58.86,105.86 50.05,67.35 113.87,122.09 179.42,173.62 99.62,78.32 165.28,175.91 193.38,300.45 0.82,3.66 1.68,7.31 2.57,10.96 -39.06,35.67 -79.39,69.93 -120.9,102.78zm-996.16 158.86c989.21,0.69 1782.84,-791.73 1787.82,-1785.07 4.95,-987.34 -796.35,-1789.55 -1787.47,-1789.5 -989.24,0.06 -1784.65,794.05 -1788.17,1785.01 -3.52,987.71 796.86,1788.86 1787.82,1789.56zm115.82 329.38l-231.51 0c-13.33,-2.5 -26.59,-5.66 -40.03,-7.4 -79.09,-10.25 -159.01,-16.1 -237.23,-30.87 -424.45,-80.11 -791.62,-272.21 -1097.65,-576.64 -317.52,-315.86 -517.46,-695.03 -593.49,-1137.55 -13.67,-79.57 -21.81,-160.09 -32.51,-240.18l0 -248.05c6.42,-54.29 11.82,-108.72 19.4,-162.85 59.02,-421.77 227.5,-794.31 510.32,-1112.64 328.77,-370.04 738.03,-599.36 1226.46,-684.37 81.03,-14.1 163.14,-22.01 244.73,-32.78l231.51 0c55.84,6.42 111.84,11.62 167.49,19.43 415.42,58.36 784.88,220.66 1101.5,496.64 378.95,330.32 613.18,744.06 699.68,1239.96 13.67,78.36 21.64,157.71 32.24,236.61l0 248.05c-6.42,54.48 -11.72,109.12 -19.49,163.41 -59.24,413.76 -221.27,781.84 -496.52,1097.21 -331.55,379.88 -746.49,614.52 -1244.2,699.92 -79.72,13.69 -160.43,21.55 -240.7,32.1z"/>
 </g>
</svg>
