<?xml version="1.0" encoding="UTF-8"?>
<!DOCTYPE svg PUBLIC "-//W3C//DTD SVG 1.1//EN" "http://www.w3.org/Graphics/SVG/1.1/DTD/svg11.dtd">
<!-- Creator: CorelDRAW 2021 (64-Bit) -->
<svg xmlns="http://www.w3.org/2000/svg" xml:space="preserve" width="43.3492mm" height="43.3492mm" version="1.1" style="shape-rendering:geometricPrecision; text-rendering:geometricPrecision; image-rendering:optimizeQuality; fill-rule:evenodd; clip-rule:evenodd"
viewBox="0 0 4334.92 4334.92"
 xmlns:xlink="http://www.w3.org/1999/xlink"
 xmlns:xodm="http://www.corel.com/coreldraw/odm/2003">
 <defs>
  <style type="text/css">
   <![CDATA[
    .fil0 {fill:#0659A9;fill-rule:nonzero}
   ]]>
  </style>
 </defs>
 <g id="Слой_x0020_1">
  <metadata id="CorelCorpID_0Corel-Layer"/>
  <path class="fil0" d="M2529.38 2746.73c-25.02,16.31 -48.92,34.81 -75.35,48.34 -29.18,14.93 -41.14,38.86 -45.78,68.54 -1.48,9.47 -0.24,19.37 -0.24,32.56 -10.77,-8.01 -21.31,-13.41 -28.61,-21.69 -31.11,-35.32 -71.63,-43.51 -116.3,-48.94 -124.27,-15.11 -230.23,-67.38 -309.98,-166.55 -21.02,-26.13 -36.19,-55.72 -46.04,-87.87 -1.03,-3.38 -1.47,-6.92 -0.4,-11.22 6.78,9.31 13.34,18.8 20.41,27.89 45.7,58.77 105.43,98.99 172,130.34 74.63,35.14 153.24,52.78 235.58,53.49 64.58,0.56 127.71,-9.65 189.55,-28.16 1.07,-0.32 2.25,-0.29 3.38,-0.42 0.59,1.22 1.19,2.46 1.78,3.69zm335.35 560.63c-20.2,-31.8 -39.89,-63.94 -60.18,-95.69 -22.09,-34.59 -53.36,-54.22 -95.06,-53.79 -35.69,0.37 -67.07,13.28 -94.87,35.7 -11.11,8.97 -16.59,19.71 -15.46,33.65 0.75,9.27 1.76,18.6 3.74,27.67 9.2,42.34 25.12,82.53 45.75,120.17 10.57,19.3 21.71,38.28 33.1,57.15 -29,16.92 -58.59,32.94 -88.74,48.02 -3.1,-5.62 -5.95,-11.48 -8.65,-17.58 -28.94,-65.21 -58.45,-130.17 -87.92,-195.14 -5.36,-11.8 -11.73,-23.13 -17.46,-34.77 -4.31,-8.76 -10.94,-13.56 -20.88,-14.28 -45.3,-3.26 -90.56,-7.01 -135.87,-10.06 -85.08,-5.74 -169.84,-13.42 -251.74,-39.32 -45.12,-14.26 -86.34,-37 -127.66,-59.42 -59.56,-32.31 -117.42,-67.37 -172.04,-107.57 -85.68,-63.05 -160.72,-136.03 -216.65,-227.62 -7.35,-12.05 -22.07,-19.72 -33.68,-29.03 -31.57,-25.32 -64.66,-48.93 -94.59,-76.04 -31.51,-28.53 -60.14,-60.23 -89.89,-90.7 -20.62,-21.11 -33.58,-46.45 -40.39,-75.04l0 -39.04c7.49,-15.96 12.43,-33.88 22.98,-47.46 23.79,-30.67 39.61,-64.56 50.87,-101.27 23,-74.99 51.55,-147.76 89.55,-216.55 25.5,-46.17 52.17,-91.74 91.79,-127.66 67.85,-61.54 136.1,-122.64 204.33,-183.77 43.78,-39.24 88.11,-77.84 131.65,-117.34 38.69,-35.11 77.33,-70.35 114.71,-106.84 33.93,-33.1 68.39,-66.11 98.51,-102.54 32.1,-38.83 68.72,-70.72 115.13,-88.92 32.62,-12.8 67.36,-20.47 101.51,-29.02 64.29,-16.1 129.19,-26.46 196.03,-26.76 33.54,-0.15 67.04,-10.23 100.55,-15.8l58.56 0c21.82,5.76 44.55,9.3 65.25,17.8 29.13,11.96 49.74,34.02 55.15,66.19 6.08,36.17 24.5,66.58 41.68,97.8 20.95,38.12 40.46,76.97 48.63,120.23 5.56,29.4 3.28,57.08 -18.56,80.75 -11.46,12.43 -19.45,28.34 -31.79,39.65 -25.38,23.28 -58.11,27.69 -90.9,28.82 -61.29,2.11 -121.16,-9.82 -181.14,-20.15 -27.16,-4.67 -54.28,-9.6 -81.48,-14.03 -25.73,-4.19 -46.63,-17.88 -67.18,-32.69 -35.13,-25.34 -44.38,-30.98 -89.86,1.23 -40.43,28.65 -66.67,69.11 -88.02,113.08 -27.07,55.78 -53.79,111.74 -81.99,166.95 -15.39,30.17 -21.41,61.7 -21.93,95 -1.43,91.42 -27.39,177.32 -59.66,261.74 -1.66,4.35 -3.31,8.7 -5.33,14.02 27.7,-4.46 53.43,-9.8 79.43,-12.6 95.83,-10.32 185.16,5.8 262.4,67.79 29.75,23.87 53.79,52.78 72.63,85.88 3.99,7.01 7.43,9.55 16.07,7 70.32,-20.71 142.15,-33.46 215.38,-36.91 72.15,-3.4 142.55,6.35 210.63,31.26 56.48,20.66 108.66,48.97 154.37,88.26 15.63,13.46 29.9,28.54 44.24,43.42 5.58,5.78 9.36,8.17 18.35,4.85 51.08,-18.78 103.84,-28.71 157.54,-14.78 22.94,5.95 45.06,14.47 66.13,25.13 -5.58,14.83 -11.38,29.55 -17.39,44.16 -17.82,-7.96 -35.18,-16.6 -51.96,-24.42 -10.48,57.02 -20.51,111.51 -31,168.54 -5.95,-5.15 -9.01,-7.69 -11.96,-10.36 -38.51,-34.8 -78.11,-68.47 -115.09,-104.83 -23.6,-23.2 -41.78,-51.86 -64.99,-75.53 -55.6,-56.68 -124.17,-91.81 -199.83,-113.75 -44.41,-12.89 -90.25,-19.25 -136.1,-17.23 -47.3,2.09 -94.42,9.56 -141.51,15.49 -30.15,3.81 -48.4,22.54 -54.14,52.38 -5.62,29.19 -1.4,57.49 7.21,85.33 4.88,15.72 10.8,31.12 16.24,46.66 -39.26,-43.58 -71.87,-91.36 -102.11,-140.93 -20.89,-34.23 -41.13,-69.19 -65.34,-101.01 -46.2,-60.7 -112.41,-80.76 -185.47,-83.86 -81.78,-3.47 -158.01,20.3 -233.35,48.06 -47.93,17.68 -95.26,37.08 -143.65,53.38 -27.02,9.09 -55.64,13.43 -83.55,19.92 -0.4,-1.33 -0.81,-2.66 -1.21,-3.99 53.13,-18.93 106.04,-38.28 150.42,-74.62 -42.34,15.51 -86.14,22.8 -130.84,26.2 -49.68,3.8 -115.56,1.4 -133.43,-5.72 0.24,-0.28 0.44,-0.79 0.7,-0.82 2.78,-0.37 5.58,-0.77 8.39,-0.97 74.7,-5.44 146.27,-22.85 215.5,-52.04 53.65,-22.62 95.29,-58.69 121.78,-108.89 18.35,-34.75 28.63,-73.95 40.75,-111.72 6.03,-18.78 9.24,-38.69 11.53,-58.34 1.66,-14.08 -5.6,-19.03 -19.67,-16.55 -3.99,0.71 -7.95,1.81 -11.74,3.23 -30.05,11.13 -59.88,22.87 -90.11,33.45 -30.63,10.71 -62.31,16.81 -94.98,18.38 1.56,-2.04 3.37,-3.41 5.38,-4.4 30.93,-15.18 62.47,-29.27 92.73,-45.69 51.68,-28.04 98.36,-62.15 134.68,-109.83 46.81,-61.44 89.13,-125.73 127.83,-192.42 15.23,-26.22 28.12,-53.93 40.22,-81.78 6.76,-15.53 -6.84,-31.92 -23.81,-30.65 -7.56,0.57 -15.65,2.03 -22.31,5.43 -40.07,20.49 -79.72,41.82 -119.69,62.51 -14.89,7.72 -30.26,14.49 -45.41,21.69 -0.61,-1.11 -1.23,-2.21 -1.84,-3.33 12.11,-8.64 23.99,-17.6 36.35,-25.87 56.66,-37.92 113.3,-75.87 170.29,-113.29 15.23,-10.01 23.71,-23.03 24.04,-41.07 0.32,-18.27 -0.43,-36.57 0.29,-54.82 0.8,-20.29 2.71,-40.54 4.14,-60.8 1.42,0.08 2.83,0.17 4.26,0.25 0.19,1.41 0.61,2.83 0.54,4.24 -1.18,28.46 3.78,55.99 14.81,82.04 15.35,36.31 17.89,40.95 60.75,45.07 12.08,1.18 24.42,0.96 36.55,0.1 38.63,-2.7 75.74,-11.41 107.33,-34.96 12.61,-9.41 22.67,-22.27 34.05,-33.72 9.21,7.1 11.37,17.94 10.72,29.06 -2.14,36.58 -5.14,49.72 -44.17,46.73 -4.98,-0.38 -11.95,1.7 -15.13,5.23 -12.67,14.03 -8.73,33.57 7.39,43.71 38.58,24.33 118.81,7.83 134.68,-44.61 3.52,-11.64 6.82,-23.46 8.76,-35.44 4.12,-25.56 7.28,-51.28 10.84,-76.94 3.46,18.32 5.49,36.71 6.43,55.16 1.77,34.93 2.57,69.63 -13.44,102.6 -2.92,6.01 -0.65,17.52 3.55,23.39 10.09,14.09 30.07,10.67 39.27,-7.87 8.36,-16.83 15.75,-35.2 18.36,-53.63 6.32,-44.59 9.59,-89.61 14.15,-134.46 0.41,-4.03 1.17,-8.03 1.77,-12.04 4.07,22.05 6.9,43.79 8.25,65.64 2.78,45.35 8.1,90.75 -1.76,136 -4.43,20.29 9.79,33.36 29.67,27.09 6.01,-1.89 11.86,-5.41 16.8,-9.39 18.37,-14.8 24.79,-36.7 23.56,-57.76 -2.44,-42.01 -9.68,-83.72 -14.44,-125.61 -3.08,-27.07 -5.29,-54.25 -7.89,-81.37 1.18,-0.13 2.36,-0.27 3.54,-0.39 1.06,5.06 2.05,10.13 3.16,15.17 4.41,19.81 8.17,39.8 13.42,59.39 13.7,51.1 36.56,100 35.05,154.69 -0.38,13.24 21.58,26.76 28.98,18.85 12.55,-13.41 25.15,-26.88 21.89,-48.86 -5.69,-38.25 -22.43,-71.98 -40.21,-105.21 -20.68,-38.62 -44.05,-75.7 -51.2,-120.24 -3.87,-24.1 -33.46,-41.62 -54.15,-41.06 -1.66,13.5 -3.29,26.72 -5.04,40.87 -9.53,-13.45 -16.73,-26.15 -26.38,-36.57 -10.66,-11.51 -25.23,-12.7 -40.38,-9.18 10.64,24.66 7.18,47.92 -1.89,72.54 -3.96,-11.42 -6.53,-20.85 -10.45,-29.67 -9.95,-22.35 -37.1,-35.5 -61.29,-32.05 -18.04,2.56 -36.38,3.04 -54.59,4.33 -26.73,1.91 -53.8,1.68 -80.11,6.07 -39.96,6.67 -79.38,16.6 -119.06,25.03 -40.97,8.71 -80.05,22.79 -112.57,49.51 -19.52,16.03 -35.1,36.8 -53,54.91 -40.75,41.25 -81.7,82.33 -122.85,123.19 -25,24.81 -51.22,48.44 -75.67,73.76 -36.59,37.9 -71.48,77.45 -108.24,115.16 -64.31,65.96 -130.18,130.4 -194.04,196.79 -30.88,32.13 -59.23,66.96 -79.95,106.82 -15.88,30.54 -29.91,62.06 -44.26,93.36 -20.8,45.35 -43.15,90.15 -53.08,139.63 -6.77,33.79 -5.59,66.56 15.48,95.61 16.11,22.22 38.7,36.76 63.09,48.39 17.05,8.15 34.51,15.42 54.74,24.39 -18.68,3.66 -34.28,7.9 -50.14,9.49 -17.67,1.78 -35.6,1.4 -53.42,1.47 -11.57,0.05 -22.11,2.41 -28.93,12.41 -6.8,9.97 -4.62,20.74 1.55,29.79 7.26,10.66 15.11,21.36 24.59,29.97 46.72,42.4 100.99,70.37 163.48,80.68 66.9,11.03 134.02,20.74 200.95,31.55 19.42,3.13 38.54,8.06 57.8,12.15 -26.83,5.31 -53.3,8.13 -79.61,12.08 -29.7,4.45 -59.61,8.98 -86.08,24.54 -20.35,11.97 -23.86,25.7 -9.57,44.2 14.31,18.54 29.54,36.78 46.73,52.58 55.12,50.66 117.46,90.54 187.18,118.18 56.84,22.54 116.12,36.32 176.49,45.32 65.86,9.81 131.8,13.36 197.5,-1.33 34.54,-7.73 66.86,-20.2 92.02,-46.52 5.12,-5.37 9.6,-11.34 15.09,-17.86 20.7,32.82 49.19,54.48 83.45,67.95 42.24,16.6 85.85,23.81 131.24,14.25 12.83,-2.69 19.09,-10.13 16.77,-22.23 -3.71,-19.44 -8.17,-38.87 -14.25,-57.67 -13.73,-42.45 -29.29,-84.43 -33.53,-129.21 -1.57,-16.56 -0.26,-33.4 -0.26,-50.11 9.05,14.57 14.5,30.15 21.96,44.7 12.89,25.16 24.49,51.6 41.2,74.1 35.03,47.15 79.71,85.46 125.59,121.53 69.74,54.83 115.7,123.14 135.37,210.32 0.57,2.56 1.17,5.12 1.8,7.67 -27.35,24.97 -55.58,48.95 -84.63,71.95zm-697.32 111.2c692.45,0.48 1247.99,-554.21 1251.48,-1249.55 3.46,-691.14 -557.45,-1252.68 -1251.23,-1252.65 -692.47,0.04 -1249.26,555.84 -1251.72,1249.51 -2.46,691.39 557.8,1252.2 1251.47,1252.69zm81.08 230.56l-162.06 0c-9.33,-1.75 -18.61,-3.96 -28.02,-5.18 -55.36,-7.17 -111.31,-11.27 -166.06,-21.6 -297.12,-56.08 -554.13,-190.55 -768.36,-403.65 -222.26,-221.1 -362.22,-486.52 -415.44,-796.29 -9.57,-55.7 -15.27,-112.06 -22.75,-168.12l0 -173.64c4.49,-38 8.27,-76.1 13.57,-113.99 41.32,-295.24 159.25,-556.02 357.23,-778.85 230.14,-259.03 516.62,-419.55 858.52,-479.06 56.72,-9.87 114.2,-15.41 171.31,-22.94l162.06 0c39.09,4.49 78.29,8.13 117.24,13.6 290.8,40.85 549.42,154.46 771.05,347.64 265.27,231.23 429.23,520.85 489.78,867.98 9.57,54.85 15.14,110.39 22.56,165.62l0 173.64c-4.49,38.13 -8.2,76.38 -13.64,114.38 -41.47,289.64 -154.89,547.29 -347.56,768.05 -232.09,265.92 -522.54,430.16 -870.94,489.94 -55.81,9.59 -112.3,15.09 -168.49,22.47z"/>
 </g>
</svg>
