<?xml version="1.0" encoding="UTF-8"?>
<!DOCTYPE svg PUBLIC "-//W3C//DTD SVG 1.1//EN" "http://www.w3.org/Graphics/SVG/1.1/DTD/svg11.dtd">
<!-- Creator: CorelDRAW 2021 (64-Bit) -->
<svg xmlns="http://www.w3.org/2000/svg" xml:space="preserve" width="84.6666mm" height="84.6666mm" version="1.1" style="shape-rendering:geometricPrecision; text-rendering:geometricPrecision; image-rendering:optimizeQuality; fill-rule:evenodd; clip-rule:evenodd"
viewBox="0 0 8466.66 8466.66"
 xmlns:xlink="http://www.w3.org/1999/xlink"
 xmlns:xodm="http://www.corel.com/coreldraw/odm/2003">
 <defs>
  <style type="text/css">
   <![CDATA[
    .str0 {stroke:black;stroke-width:16.93;stroke-miterlimit:22.9256}
    .fil0 {fill:black}
    .fil1 {fill:white;fill-rule:nonzero}
   ]]>
  </style>
 </defs>
 <g id="Слой_x0020_1">
  <metadata id="CorelCorpID_0Corel-Layer"/>
  <ellipse class="fil0 str0" cx="4233.34" cy="4233.33" rx="2963.33" ry="2963.34"/>
  <path class="fil1" d="M3273.02 4006.89c-174.6,0 -349.32,-3.93 -523.68,2.42 -51.57,1.85 -108.99,22.72 -151.59,52.34 -78.85,54.84 -102,160.71 -68.96,250.18 33.12,89.65 113.95,147.21 215.14,147.51 340.33,1 680.66,0.36 1021,0.5 167.1,0.07 241.92,75.26 241.99,243.19 0.12,333.72 -2.1,667.45 2.21,1001.09 0.71,53.94 19.58,114.2 48.58,159.74 51.18,80.39 157.1,106.48 248.05,76.39 92.26,-30.54 153.41,-113.94 153.71,-217.47 1.02,-342.54 0.32,-685.1 0.57,-1027.63 0.1,-158.07 77.7,-235.18 236.52,-235.27 335.91,-0.2 671.85,2.07 1007.72,-2.25 53.92,-0.69 114.16,-19.68 159.74,-48.68 80.14,-51 106.37,-157.34 76.38,-248.13 -30.44,-92.1 -114.09,-153.23 -217.6,-153.53 -340.33,-0.99 -680.66,-0.33 -1021.01,-0.49 -166.95,-0.07 -241.74,-75.41 -241.79,-243.4 -0.11,-333.7 1.86,-667.44 -2.05,-1001.08 -0.61,-52.15 -17.44,-110.26 -44.67,-154.63 -51.05,-83.16 -159.35,-112.2 -252.35,-81.45 -92.19,30.49 -153.23,114.04 -153.52,217.59 -0.97,346.96 0,693.92 -0.68,1040.88 -0.29,140.35 -82.24,221.38 -223.21,221.95 -170.18,0.7 -340.33,0.17 -510.5,0.23z"/>
 </g>
</svg>
