<?xml version="1.0" encoding="UTF-8"?>
<!DOCTYPE svg PUBLIC "-//W3C//DTD SVG 1.1//EN" "http://www.w3.org/Graphics/SVG/1.1/DTD/svg11.dtd">
<!-- Creator: CorelDRAW 2021 (64-Bit) -->
<svg xmlns="http://www.w3.org/2000/svg" xml:space="preserve" width="84.6666mm" height="84.6666mm" version="1.1" style="shape-rendering:geometricPrecision; text-rendering:geometricPrecision; image-rendering:optimizeQuality; fill-rule:evenodd; clip-rule:evenodd"
viewBox="0 0 8466.66 8466.66"
 xmlns:xlink="http://www.w3.org/1999/xlink"
 xmlns:xodm="http://www.corel.com/coreldraw/odm/2003">
 <defs>
  <style type="text/css">
   <![CDATA[
    .str0 {stroke:black;stroke-width:16.93;stroke-miterlimit:22.9256}
    .fil0 {fill:black}
    .fil1 {fill:white;fill-rule:nonzero}
   ]]>
  </style>
 </defs>
 <g id="Слой_x0020_1">
  <metadata id="CorelCorpID_0Corel-Layer"/>
  <ellipse class="fil0 str0" cx="4233.33" cy="4233.33" rx="4233.34" ry="4233.33"/>
  <path class="fil1" d="M6507.9 2221.63c-2.86,-281.17 -239,-515.68 -516.42,-512.86 -281.16,2.88 -515.68,239.01 -512.85,516.42 2.87,281.17 239,515.68 516.42,512.86 281.16,-2.86 515.68,-239.01 512.85,-516.42zm257.84 98.34c-15.72,55.39 -28.26,111.92 -47.65,165.99 -129.61,361.31 -509.78,573.54 -882.13,493.94 -380.78,-81.39 -643.53,-431.53 -612.92,-816.76 30.68,-386.24 348.62,-694.87 732.43,-711 396.26,-16.63 733.09,256.66 799.25,648.09 1.57,9.22 7.25,17.77 11.02,26.63l0 193.11zm-2282.55 805.5c2.17,5.79 4.34,11.58 6.51,17.38 -16.65,14.53 -34.22,28.13 -49.83,43.71 -422.46,422.26 -844.81,844.63 -1266.97,1267.21 -188.21,188.39 -188.51,405.24 -0.96,593.18 235.83,236.3 471.05,473.24 708.92,707.46 37.96,37.39 51.11,74.68 50.85,126.3 -1.85,355.96 -1.97,711.94 0.19,1067.9 0.3,49.1 7.95,101.57 26.61,146.48 44.49,107.12 167.27,167.1 277.58,144.49 128.26,-26.29 210.71,-129.59 211.02,-270.66 0.94,-416.29 0.09,-832.6 0.55,-1248.91 0.1,-87.46 -31.97,-158.75 -94.09,-220.41 -179.84,-178.54 -357.77,-358.97 -536.37,-538.74 -15.41,-15.51 -30.19,-31.64 -34.05,-35.71 396.3,-396.27 790.08,-790.03 1181.06,-1181 0,7.35 0,24.94 0,42.51 0.03,289.6 -1.18,579.22 0.57,868.8 0.96,157.78 104.44,269.23 255.1,270.49 321.75,2.7 643.56,1.12 965.34,0.67 64.34,-0.08 117.55,-26.56 155.34,-78.65 45.03,-62.07 52.73,-129.77 17.69,-198.89 -37.16,-73.32 -99.47,-108.05 -180.98,-108.13 -253.41,-0.27 -506.82,-0.12 -760.22,-0.15 -21.23,0 -42.47,0 -66.66,0 0,-33.05 0,-57.1 0,-81.15 0,-335.87 -0.54,-671.74 0.36,-1007.59 0.24,-88.24 -21.18,-166.24 -85.65,-230.16 -134.25,-133.1 -267.46,-267.23 -401.27,-400.78 -53.66,-53.56 -117.99,-81.75 -194.49,-81.73 -478.65,0.16 -957.33,-1.61 -1435.94,2.61 -49.33,0.43 -110.03,23.81 -145.55,57.52 -174.99,166.08 -343.94,338.56 -513.5,510.3 -49.59,50.23 -69.04,112.75 -50.39,183.06 39.71,149.84 213.74,194.91 329.76,82.55 138.68,-134.29 274.41,-271.68 409.5,-409.6 29.18,-29.79 58.76,-41.38 100.24,-41.21 353.96,1.48 707.92,0.85 1061.88,0.85l57.85 0zm-621.66 256.7c-142.24,0 -284.49,-1.13 -426.7,1.36 -18.58,0.32 -40.24,15.7 -54.73,29.95 -113.35,111.36 -224.17,225.29 -337.88,336.26 -212.92,207.76 -512.25,192.69 -691.4,-33.19 -121.41,-153.1 -126.07,-393.64 3.48,-541.89 117.54,-134.53 248.6,-257.28 374,-384.91 50.75,-51.66 103.43,-101.45 153.28,-153.94 101.41,-106.77 225.81,-156.06 372.01,-155.93 462.64,0.4 925.26,0.28 1387.88,0.06 162.77,-0.07 301.61,55.1 416.39,172.28 125.28,127.88 252.48,253.87 379.58,379.94 114.59,113.67 169.11,251.2 168.85,411.88 -0.38,255.44 -0.1,510.9 -0.1,766.34l0 73.78c26.02,0 47.44,-0.04 68.85,0.02 174.98,0.49 350.22,-4.94 524.88,2.83 310.81,13.82 505.93,304.24 407.67,597.95 -52.8,157.83 -212.31,290.9 -378.12,293.51 -353.85,5.55 -708.06,9.08 -1061.71,-1.12 -262.84,-7.59 -460.79,-244.88 -464.37,-530.58 -1.23,-97.54 -0.19,-195.11 -0.19,-290.48 -188.75,187.23 -375.03,372 -565.48,560.92 124.61,124.49 254.78,252.53 382.34,383.13 40.43,41.4 77.89,86.97 109.78,135.2 55.91,84.49 75.24,180.62 75.19,281.24 -0.23,416.36 1.99,832.74 -0.77,1249.09 -2.2,329.54 -246.94,556.31 -566.46,531.27 -260.12,-20.38 -460.09,-247.45 -461.52,-528.59 -1.7,-333.89 -1,-667.8 0.4,-1001.68 0.16,-39.18 -10.96,-66.82 -39.01,-94.52 -218.96,-216.24 -436.63,-433.8 -654.14,-651.52 -278.93,-279.18 -279.16,-663.85 -0.06,-943.86 278.32,-279.22 557.48,-557.58 836.59,-836.02 15.57,-15.52 34,-28.17 51.1,-42.15 -3.21,-5.55 -6.42,-11.09 -9.63,-16.63zm-1601.41 1847.61c80.69,-82.38 157.91,-161.22 232.89,-237.77 61.46,62.09 119.09,120.31 171.52,173.28 -135.28,135.07 -275.12,274.71 -416.59,415.96 -182.44,-182.47 -372.95,-372.88 -563.31,-563.45 -71.49,-71.58 -154.63,-107.7 -256.59,-82.2 -188.1,47.04 -260.11,267.07 -134.75,414.97 40.18,47.41 86.35,89.79 130.38,133.88 207.45,207.7 415.01,415.28 622.7,622.74 141.56,141.42 284.9,142.05 425.51,1.74 166.51,-166.17 332.87,-332.49 498.83,-499.22 15.39,-15.46 27.36,-34.31 38.9,-49.03 65.65,66.87 122.95,125.26 183.98,187.42 1.42,-5.89 1.75,-1.09 -0.5,1.17 -190.07,190.86 -375.91,386.24 -571.8,570.96 -220.36,207.8 -513.58,204.28 -729.93,-6.12 -256.55,-249.49 -510.32,-502.04 -759.18,-759.18 -288.02,-297.6 -166.55,-759.18 227.1,-866.25 194.79,-52.99 364.8,5.92 506.8,147.36 129.59,129.07 258.79,258.56 394.04,393.74z"/>
 </g>
</svg>
