<?xml version="1.0" encoding="UTF-8"?>
<!DOCTYPE svg PUBLIC "-//W3C//DTD SVG 1.1//EN" "http://www.w3.org/Graphics/SVG/1.1/DTD/svg11.dtd">
<!-- Creator: CorelDRAW 2021 (64-Bit) -->
<svg xmlns="http://www.w3.org/2000/svg" xml:space="preserve" width="84.6666mm" height="84.6666mm" version="1.1" style="shape-rendering:geometricPrecision; text-rendering:geometricPrecision; image-rendering:optimizeQuality; fill-rule:evenodd; clip-rule:evenodd"
viewBox="0 0 8466.66 8466.66"
 xmlns:xlink="http://www.w3.org/1999/xlink"
 xmlns:xodm="http://www.corel.com/coreldraw/odm/2003">
 <defs>
  <style type="text/css">
   <![CDATA[
    .fil0 {fill:black}
    .fil1 {fill:white;fill-rule:nonzero}
   ]]>
  </style>
 </defs>
 <g id="Слой_x0020_1">
  <metadata id="CorelCorpID_0Corel-Layer"/>
  <circle class="fil0" cx="4233.33" cy="4233.32" r="2963.34"/>
  <path class="fil1" d="M5087.8 4766.74c0,298.93 0.1,597.87 -0.21,896.8 -0.02,21.92 0.17,44.62 -5.16,65.57 -13.5,52.95 -66.42,91.04 -120.12,89.89 -54.84,-1.18 -104.02,-39.86 -116.94,-93.89 -4.1,-17.2 -5.42,-35.42 -5.42,-53.17 -0.27,-604.76 -0.28,-1209.52 -0.16,-1814.28 0.03,-87.03 45.73,-142.9 118.28,-145.95 69.41,-2.9 125.95,46.63 128.7,116.92 2.54,64.65 0.99,129.47 1.01,194.21 0.05,247.97 0.02,495.93 0.02,743.9zm-1708.28 -4.46c0.01,-303.07 0.4,-606.13 -0.35,-909.2 -0.14,-55.39 15.61,-100.3 66.87,-127.23 71.35,-37.47 157.17,0.61 175.85,78.96 5.03,21.1 5.47,43.65 5.48,65.53 0.27,596.49 0.28,1193 -0.04,1789.49 -0.02,23.22 -0.88,47.24 -6.58,69.54 -13.92,54.4 -69.98,93.25 -124.33,89.42 -60.48,-4.28 -109.49,-50.57 -115.6,-110.16 -1.68,-16.39 -1.26,-33.02 -1.26,-49.54 -0.06,-298.94 -0.05,-597.87 -0.04,-896.81zm978.17 0.13c0,307.24 0.27,614.48 -0.18,921.71 -0.13,94.29 -78.34,155.18 -162.14,127.86 -49.4,-16.1 -83.6,-61.04 -85.38,-115.03 -1.29,-38.52 -0.37,-77.13 -0.37,-115.72 0,-577.27 -0.05,-1154.54 0.07,-1731.81 0.02,-78.35 45.21,-132.58 113.45,-137.53 75.7,-5.48 133.82,49.19 134.31,128.82 0.82,135.01 0.24,270.03 0.24,405.05 0.01,172.22 0,344.43 0,516.65zm412.49 -2116.96c27.58,-199.67 -100.2,-288.4 -247.37,-282.67 -199.41,7.76 -399.36,1.84 -599.07,1.95 -162.68,0.1 -257.73,118.39 -223.86,280.72l1070.3 0zm-537.23 249.93c-476.56,0 -953.15,-0.08 -1429.72,0.24 -21.86,0.01 -44.38,0.74 -65.47,5.82 -96.19,23.2 -138.16,134.8 -82.08,216.27 34,49.4 83.73,62.23 140.6,62.2 958.65,-0.36 1917.31,-0.25 2875.96,-0.38 15.1,0 30.36,-0.75 45.26,-3.04 66.83,-10.24 116.37,-65.93 119.43,-133.31 2.92,-64.57 -41.09,-125.48 -104.73,-141.06 -22.38,-5.47 -46.31,-6.46 -69.52,-6.48 -476.58,-0.35 -953.16,-0.26 -1429.73,-0.26zm-1337.41 534.52l0 46.31c0,797.87 -0.07,1595.74 0.06,2393.61 0.02,148.31 84.75,232.09 234.14,232.11 735.95,0.04 1471.9,0.04 2207.85,0 149.27,-0.02 234.09,-83.89 234.11,-232.2 0.14,-797.87 0.07,-1595.74 0.07,-2393.62l0 -46.21 -2676.23 0zm949.46 -1313.23l777.31 0c3.59,1.92 6.99,4.84 10.83,5.64 248.77,52.25 387.07,221.43 388.19,475.11 0.06,15.76 0,31.5 0,49.91 22.16,0 37.2,0 52.24,0 205.26,0.02 410.53,-1.39 615.78,0.46 192.2,1.73 350.94,130.4 387.23,309.69 36.99,182.67 -52.64,357.75 -226.61,436.34 -27.73,12.52 -30.5,28.77 -30.47,53.72 0.41,541.34 0.32,1082.66 0.32,1624 0,268.6 0.6,537.2 -0.2,805.8 -0.64,215.65 -125.53,390.35 -320.93,451.54 -24.55,7.69 -49.5,14.1 -74.26,21.11l-2381.55 0c-26.05,-7.49 -52.41,-14.04 -78.09,-22.65 -199.22,-66.78 -317.21,-236.89 -317.26,-458.25 -0.17,-805.83 -0.26,-1611.67 0.63,-2417.5 0.03,-31.47 -7.66,-47.66 -38.13,-61.35 -155.84,-69.98 -248.89,-238.66 -224.27,-399.97 31.28,-204.88 187.53,-341.17 396.24,-342.61 203.9,-1.4 407.79,-0.32 611.68,-0.33 16.03,0 32.06,0 52.92,0 0,-32.59 -0.96,-59.85 0.16,-87.04 6.96,-170.7 85.67,-300.1 232.92,-383.74 50.25,-28.53 109.94,-40.4 165.32,-59.88z"/>
 </g>
</svg>
