<?xml version="1.0" encoding="UTF-8"?>
<!DOCTYPE svg PUBLIC "-//W3C//DTD SVG 1.1//EN" "http://www.w3.org/Graphics/SVG/1.1/DTD/svg11.dtd">
<!-- Creator: CorelDRAW 2021 (64-Bit) -->
<svg xmlns="http://www.w3.org/2000/svg" xml:space="preserve" width="84.6666mm" height="84.6666mm" version="1.1" style="shape-rendering:geometricPrecision; text-rendering:geometricPrecision; image-rendering:optimizeQuality; fill-rule:evenodd; clip-rule:evenodd"
viewBox="0 0 8466.66 8466.66"
 xmlns:xlink="http://www.w3.org/1999/xlink"
 xmlns:xodm="http://www.corel.com/coreldraw/odm/2003">
 <defs>
  <style type="text/css">
   <![CDATA[
    .str0 {stroke:black;stroke-width:16.93;stroke-miterlimit:22.9256}
    .fil0 {fill:black}
    .fil1 {fill:white;fill-rule:nonzero}
   ]]>
  </style>
 </defs>
 <g id="Слой_x0020_1">
  <metadata id="CorelCorpID_0Corel-Layer"/>
  <ellipse class="fil0 str0" cx="4233.33" cy="4233.33" rx="2963.33" ry="2963.34"/>
  <path class="fil1" d="M2782.54 4564.78c-74.11,74.19 -147.41,148.84 -222.39,221.76 -19.38,18.85 -26.71,37.94 -26.64,64.75 0.79,356.76 0.53,713.52 0.53,1070.28l0 44.9c382.37,0 758.34,0.07 1134.32,-0.46 9.88,-0.01 22.4,-3.97 29.22,-10.65 80.68,-78.84 160.49,-158.56 239.05,-236.58 -385.65,-385.62 -768.3,-768.24 -1154.09,-1154zm3002.05 -697.63c6.25,-5.7 13.5,-11.78 20.17,-18.44 132.58,-132.46 265.42,-264.63 397.47,-397.59 93.48,-94.13 93.43,-217.13 -0.82,-311.63 -279.24,-280.01 -558.87,-559.67 -838.89,-838.92 -97.46,-97.18 -219.33,-95.82 -317.52,2.07 -129.76,129.4 -259.24,259.11 -388.74,388.77 -8.55,8.56 -16.25,17.94 -22.57,24.96 383.75,383.7 765.54,765.46 1150.9,1150.78zm-188.8 179.4c-379.62,-379.67 -762.03,-762.12 -1139.89,-1140.02 -493.64,493.72 -989.74,989.89 -1480.99,1481.21 378.8,378.8 761.31,761.31 1139.85,1139.81 492.4,-492.39 987.93,-987.9 1481.03,-1481zm-449 -2065.35l115.76 0c107.07,22.7 200.94,67.81 279.59,147.18 276.32,278.92 554.58,555.91 832.51,833.24 57.63,57.5 100.93,123.37 124.86,201.36 7.58,24.7 13.26,49.98 19.81,75l0 115.75c-23.83,146.96 -116.36,249.19 -217.47,349.95 -815.86,813.19 -1629.67,1628.42 -2444.81,2442.33 -26.61,26.58 -60.52,45.85 -91.04,68.53l-1389.06 0c-40.72,-19.92 -71.17,-50.1 -90.95,-90.96l0 -1389.06c16.87,-24.72 30.29,-52.88 51.09,-73.7 844.11,-845.28 1688.96,-1689.85 2533.49,-2534.75 56.51,-56.54 120.65,-100.02 197.38,-123.59 26,-7.99 52.55,-14.23 78.84,-21.28z"/>
 </g>
</svg>
