<?xml version="1.0" encoding="UTF-8"?>
<!DOCTYPE svg PUBLIC "-//W3C//DTD SVG 1.1//EN" "http://www.w3.org/Graphics/SVG/1.1/DTD/svg11.dtd">
<!-- Creator: CorelDRAW 2021 (64-Bit) -->
<svg xmlns="http://www.w3.org/2000/svg" xml:space="preserve" width="84.6666mm" height="84.6666mm" version="1.1" style="shape-rendering:geometricPrecision; text-rendering:geometricPrecision; image-rendering:optimizeQuality; fill-rule:evenodd; clip-rule:evenodd"
viewBox="0 0 8466.66 8466.66"
 xmlns:xlink="http://www.w3.org/1999/xlink"
 xmlns:xodm="http://www.corel.com/coreldraw/odm/2003">
 <defs>
  <style type="text/css">
   <![CDATA[
    .str0 {stroke:black;stroke-width:16.93;stroke-miterlimit:22.9256}
    .fil0 {fill:black}
    .fil1 {fill:white;fill-rule:nonzero}
   ]]>
  </style>
 </defs>
 <g id="Слой_x0020_1">
  <metadata id="CorelCorpID_0Corel-Layer"/>
  <circle class="fil0 str0" cx="4233.33" cy="4233.33" r="4233.33"/>
  <path class="fil1" d="M6569.39 2188.04c47.46,-47.94 99.45,-96.21 146.44,-148.96 71.95,-80.71 66.8,-202.35 -8.01,-278.33 -73.42,-74.55 -193.71,-84 -273.34,-15.75 -56.29,48.24 -106.34,103.78 -155.46,152.39 97.08,97.17 191.1,191.29 290.37,290.65zm-4668.28 4092.17c-51.45,50.63 -109.9,100.51 -158.95,158.36 -66.15,77.97 -55.06,196.12 17.6,268.53 72.67,72.45 189.9,82.89 268.73,16.71 58.03,-48.72 108.55,-106.38 158.59,-156.24 -97,-97.47 -190.86,-191.79 -285.97,-287.36zm3470.02 -4719.14c-115.76,8.19 -181.29,47.33 -214.39,127.33 -35.8,86.51 -17.93,165.76 48.9,232.57 446.51,446.47 892.76,893.19 1339.89,1339.04 87.63,87.38 213.68,89.17 295.57,8.33 83.01,-81.92 84.02,-207.93 -3.32,-295.61 -447.07,-448.7 -894.6,-896.95 -1344.68,-1342.63 -37.66,-37.31 -95.31,-54.41 -121.97,-69.03zm-2259.13 5356.08c2.79,-4.85 5.56,-9.7 8.35,-14.55 82.45,0.61 160.28,-48.75 189.99,-125.47 32.9,-84.89 18.43,-162.9 -46.64,-228.07 -447.57,-448.15 -895.19,-896.26 -1343.7,-1343.5 -87.16,-86.9 -214.54,-87.66 -295.58,-6.36 -82.48,82.73 -82.58,207.78 5,295.66 445.75,447.22 891.89,894.04 1340.4,1338.44 37.89,37.55 94.35,56.33 142.18,83.85zm138.04 -1977.35c91.63,91.63 185.87,185.87 275.12,275.1 562.47,-562.46 1127.63,-1127.59 1690.57,-1690.53 -89.75,-90.36 -183.66,-184.92 -274.22,-276.11l-1691.47 1691.54zm889.15 1494.99c-1.17,-75.77 -31.93,-125.77 -76.99,-170.66 -276.02,-275.01 -551.25,-550.8 -826.76,-826.3 -345.09,-345.09 -690.48,-689.87 -1035.07,-1035.45 -60.19,-60.38 -128.68,-90.38 -213.16,-67.5 -163.66,44.33 -202.94,232.53 -75.5,360.04 619.07,619.33 1238.33,1238.47 1857.57,1857.63 12.51,12.51 24.67,25.79 38.86,36.12 67.83,49.33 140.92,58.89 216.55,21.05 75.41,-37.77 111.72,-101.7 114.5,-174.93zm379.27 -4599.29c-4.99,0.8 -22.82,2 -39.66,6.71 -158.16,44.25 -202.21,230.97 -81.65,352.21 260.86,262.33 522.96,523.43 784.55,785.02 358.99,359 716.95,719.05 1078.52,1075.44 39.31,38.76 96.81,69.28 150.73,80.67 83.13,17.54 164.06,-36.81 200.91,-113.96 37.78,-79.11 24,-166.93 -41.7,-233.72 -131.1,-133.27 -263.97,-264.77 -396.15,-396.97 -491.2,-491.18 -982.58,-982.16 -1473.3,-1473.81 -47.69,-47.76 -98.98,-83.69 -182.25,-81.59zm-1324.56 5421.64l-153.56 0c-269.87,-49 -407.06,-278.71 -608.99,-453.34 -54.92,61.57 -103.46,127.41 -163.16,180.75 -178.37,159.37 -442.52,181.1 -647.65,59.54 -304.65,-180.57 -368.44,-591.47 -131.69,-855.13 51.83,-57.73 107.85,-111.69 165.61,-171.17 -51.12,-50.02 -96.52,-96.21 -143.81,-140.39 -135.82,-126.83 -264.95,-257.84 -301.12,-451.08l0 -153.56c3.56,-10.92 8.2,-21.65 10.5,-32.83 38.35,-186.03 144.29,-319.25 313.78,-403.19 8.24,-4.08 15.5,-10.14 24.81,-16.35 -75.69,-137.22 -99.2,-279.59 -59.85,-429.33 107.08,-407.48 607.14,-556.73 916.97,-270.1 160.18,148.18 310.84,306.71 464.83,461.52 34.35,34.53 64.65,73.08 94.15,106.75 575.39,-575.04 1140.06,-1139.39 1714.74,-1713.72 -20.39,-16.49 -45.08,-33.11 -65.76,-53.76 -169.81,-169.58 -344.64,-334.63 -506.52,-511.51 -159.62,-174.4 -189.59,-382.93 -93.49,-598.05 96.16,-215.24 271.82,-330.29 508.14,-328.21 98.55,0.87 196.79,36.65 300.95,57.74 56.04,-126.66 154.86,-229.17 295.63,-287.88 42.88,-17.88 88.28,-29.72 132.54,-44.32l165.36 0c270.21,48.48 406.53,279.28 606.59,451.21 54.17,-59.7 102.43,-122.98 160.69,-175.08 139.72,-124.95 306.3,-167.21 488.2,-126.34 425.82,95.68 583.21,605.17 287.46,927.16 -48.96,53.31 -106.32,98.9 -167.55,155.19 56.9,54.45 103.16,99.47 150.25,143.6 136.81,128.23 268.89,259.5 305.18,455.08l0 153.56c-3.36,9.12 -7.98,17.98 -9.85,27.38 -37.73,191.04 -145.33,327.33 -320.63,411.07 -6.52,3.1 -11.35,9.76 -17.71,15.45 63.96,115.2 92.28,236.5 70.96,365.33 -36.95,223.3 -162.99,378.87 -376.94,450.23 -216.59,72.23 -412.41,21.31 -575.84,-138.34 -167.51,-163.63 -331.99,-330.4 -496.55,-496.99 -15.99,-16.19 -23.31,-40.92 -29.77,-52.74 -582.14,582.05 -1146.57,1146.38 -1719.33,1719.06 12.59,9.47 31.78,20.63 46.98,35.82 174.04,173.85 353.11,343.12 519.45,524.08 159.88,173.94 191.27,382.34 95.86,597.99 -95.42,215.69 -270.64,331.57 -507.07,330.39 -98.69,-0.5 -197.22,-36.31 -303.21,-57.54 -37.72,87.78 -100.87,177.49 -196.67,232.01 -75.5,42.98 -161.56,67.39 -242.91,100.04z"/>
 </g>
</svg>
