<?xml version="1.0" encoding="UTF-8"?>
<!DOCTYPE svg PUBLIC "-//W3C//DTD SVG 1.1//EN" "http://www.w3.org/Graphics/SVG/1.1/DTD/svg11.dtd">
<!-- Creator: CorelDRAW 2021 (64-Bit) -->
<svg xmlns="http://www.w3.org/2000/svg" xml:space="preserve" width="84.6666mm" height="84.6666mm" version="1.1" style="shape-rendering:geometricPrecision; text-rendering:geometricPrecision; image-rendering:optimizeQuality; fill-rule:evenodd; clip-rule:evenodd"
viewBox="0 0 8466.66 8466.66"
 xmlns:xlink="http://www.w3.org/1999/xlink"
 xmlns:xodm="http://www.corel.com/coreldraw/odm/2003">
 <defs>
  <style type="text/css">
   <![CDATA[
    .str0 {stroke:black;stroke-width:16.93;stroke-miterlimit:22.9256}
    .fil0 {fill:black}
    .fil1 {fill:white;fill-rule:nonzero}
   ]]>
  </style>
 </defs>
 <g id="Слой_x0020_1">
  <metadata id="CorelCorpID_0Corel-Layer"/>
  <circle class="fil0 str0" cx="4233.33" cy="4233.33" r="4233.32"/>
  <path class="fil1" d="M6058.98 2805.69l0 -1237.95 -400.54 0c0,272.98 -0.27,542.11 0.72,811.23 0.06,13.98 7.29,31.39 17.1,41.37 123.86,125.98 248.81,250.88 382.72,385.35zm-4291.69 1630.33c71.34,2.3 121.75,-35.41 169.3,-83.01 712.19,-712.97 1424.88,-1425.43 2137.49,-2137.99 115.27,-115.25 202.85,-115.52 317.5,-0.86 709.83,709.78 1419.62,1419.61 2129.47,2129.36 16.7,16.7 32.79,34.29 51.17,48.94 112.34,89.51 277.8,38.16 320.4,-99.21 30.41,-98.08 -13.54,-169.43 -80.5,-236.28 -802.25,-801.05 -1603.64,-1602.98 -2405.41,-2404.55 -119.85,-119.82 -226.89,-119.72 -346.06,-0.55 -801.69,801.64 -1603.34,1603.3 -2404.93,2405.05 -16.68,16.68 -34.17,33 -48.24,51.77 -50.52,67.45 -59.2,140.7 -20.8,216.12 37.09,72.89 98.74,109.54 180.61,111.21zm3211.6 2466.75c316.82,0 623.8,0.04 930.79,-0.01 225.72,-0.03 342.87,-116.26 342.88,-340.35 0.05,-639.71 -0.47,-1279.4 1.01,-1919.11 0.12,-46.9 -12.61,-79.88 -46.14,-113.31 -643.96,-642 -1286.67,-1285.26 -1929.73,-1928.14 -13.55,-13.55 -28.21,-25.97 -44.26,-40.67 -14.12,12.7 -26.06,22.46 -36.9,33.3 -650.05,649.89 -1300.21,1299.68 -1948.9,1950.91 -19.19,19.26 -32.25,53.99 -32.33,81.55 -1.78,649.54 -1.49,1299.09 -1.31,1948.62 0.05,204.77 122.03,326.98 326.27,327.15 295.25,0.24 590.5,0.11 885.74,-0.07 18.98,0 37.97,-1.9 61.61,-3.16l0 -73.98c0,-409.42 -0.08,-818.83 0.05,-1228.23 0.05,-147.45 64.74,-212.8 211.85,-212.95 354.29,-0.33 708.59,-0.26 1062.88,-0.03 152.03,0.1 216.39,63.98 216.44,214.22 0.11,409.41 0.03,818.82 0.05,1228.23l0 76.03zm-3769.35 -2586.76l0 -165.36c35.78,-178.85 152.37,-303.06 276.5,-426.6 749.23,-745.57 1496.64,-1492.97 2242.19,-2242.22 122.24,-122.84 245.72,-237.09 422.42,-272.3l165.37 0c178.75,35.75 305.05,150.07 426.46,276.35 164.97,171.56 336.14,337.18 503.65,506.34 14.71,14.87 21.98,37.11 32.71,55.92 8.36,-5.55 16.74,-11.13 25.1,-16.69l0 -62.19c0,-177.07 3.8,-354.26 -1.4,-531.18 -3.21,-108.98 32.54,-186.63 135.59,-228.55l850.44 0c100.35,48.7 131.2,129.57 130.51,238.94 -3.56,552.57 -1.21,1105.19 -2.54,1657.79 -0.09,40.79 11.91,68.97 40.76,97.42 179.22,176.73 354.08,357.95 535.53,532.36 125.5,120.61 234.91,247.81 264.3,426.42l0 141.74c-4.05,14.79 -8.32,29.53 -12.13,44.4 -61.02,238.16 -210.61,385.64 -452.33,433.47 -58.46,11.57 -120.08,7.1 -185.7,10.27l0 70.16c-0.02,576.05 0.78,1152.1 -0.35,1728.15 -0.6,299.61 -179.11,547.1 -454.2,634.87 -36.9,11.76 -74.57,21.12 -111.9,31.61l-1275.66 0c-104.81,-38.62 -142.31,-115.1 -141.51,-224.62 2.96,-406.98 1.19,-813.99 1.19,-1221.01l0 -68.68 -782.57 0 0 74.4c0,405.03 -1.76,810.09 1.15,1215.11 0.79,109.36 -36.17,186.27 -141.32,224.8l-1275.66 0c-4.86,-3.01 -9.49,-8.08 -14.66,-8.73 -274.06,-34.49 -557.78,-287.5 -553.5,-681.44 6.23,-570.25 1.59,-1140.62 1.59,-1710.95l0 -66.27c-29.76,0 -49.4,-0.44 -69.01,0.06 -279.35,7.21 -506.58,-169.35 -569.15,-442.04 -2.5,-10.91 -7.84,-21.18 -11.87,-31.75z"/>
 </g>
</svg>
