<?xml version="1.0" encoding="UTF-8"?>
<!DOCTYPE svg PUBLIC "-//W3C//DTD SVG 1.1//EN" "http://www.w3.org/Graphics/SVG/1.1/DTD/svg11.dtd">
<!-- Creator: CorelDRAW 2021 (64-Bit) -->
<svg xmlns="http://www.w3.org/2000/svg" xml:space="preserve" width="84.6666mm" height="84.6666mm" version="1.1" style="shape-rendering:geometricPrecision; text-rendering:geometricPrecision; image-rendering:optimizeQuality; fill-rule:evenodd; clip-rule:evenodd"
viewBox="0 0 8466.66 8466.66"
 xmlns:xlink="http://www.w3.org/1999/xlink"
 xmlns:xodm="http://www.corel.com/coreldraw/odm/2003">
 <defs>
  <style type="text/css">
   <![CDATA[
    .fil0 {fill:black}
   ]]>
  </style>
 </defs>
 <g id="Слой_x0020_1">
  <metadata id="CorelCorpID_0Corel-Layer"/>
  <path class="fil0" d="M4233.33 1693.33c1402.8,0 2540,1137.2 2540,2540 0,1402.8 -1137.2,2540 -2540,2540 -1402.8,0 -2540,-1137.2 -2540,-2540 0,-1402.8 1137.2,-2540 2540,-2540zm0 126.99c1332.67,0 2413.01,1080.34 2413.01,2413.01 0,1332.67 -1080.34,2413.01 -2413.01,2413.01 -1332.67,0 -2413.01,-1080.34 -2413.01,-2413.01 0,-1332.67 1080.34,-2413.01 2413.01,-2413.01zm483.66 3431.94c-51.6,33.64 -100.89,71.78 -155.43,99.7 -60.22,30.82 -84.87,80.2 -94.46,141.42 -3.06,19.54 -0.48,39.96 -0.48,67.17 -22.23,-16.53 -43.99,-27.68 -59.02,-44.76 -64.17,-72.87 -147.77,-89.76 -239.92,-100.96 -256.39,-31.16 -474.97,-139 -639.51,-343.6 -43.37,-53.91 -74.64,-114.94 -94.97,-181.29 -2.13,-6.94 -3.03,-14.26 -0.84,-23.12 14.01,19.2 27.53,38.78 42.13,57.53 94.27,121.24 217.49,204.22 354.81,268.88 153.98,72.52 316.15,108.91 485.99,110.38 133.25,1.14 263.5,-19.92 391.07,-58.09 2.21,-0.67 4.64,-0.61 6.97,-0.88 1.22,2.53 2.45,5.08 3.66,7.62zm660.1 1106.23c-30.74,-49.05 -61.24,-98.29 -92.41,-147.07 -45.6,-71.34 -110.1,-111.86 -196.12,-110.98 -73.62,0.77 -138.36,27.42 -195.74,73.67 -22.9,18.48 -34.2,40.65 -31.87,69.41 1.56,19.12 3.64,38.39 7.71,57.09 17.99,82.68 48.39,161.41 87.7,235.47 -62.11,19.49 -125.32,36.46 -189.48,50.95 -39.08,-86.89 -78.48,-173.64 -117.84,-260.39 -11.05,-24.34 -24.19,-47.73 -36,-71.73 -8.91,-18.08 -22.59,-27.97 -43.1,-29.45 -93.44,-6.73 -186.81,-14.46 -280.28,-20.77 -175.52,-11.83 -350.39,-27.68 -519.37,-81.11 -93.06,-29.42 -178.1,-76.34 -263.35,-122.59 -122.86,-66.65 -242.22,-138.96 -354.92,-221.91 -176.75,-130.08 -331.53,-280.64 -446.93,-469.58 -15.19,-24.86 -45.54,-40.67 -69.49,-59.89 -65.13,-52.23 -133.38,-100.96 -195.15,-156.88 -64.99,-58.84 -124.07,-124.25 -185.42,-187.09 -42.55,-43.56 -69.28,-95.83 -83.34,-154.82l0 -80.55c15.45,-32.91 25.66,-69.88 47.4,-97.91 49.09,-63.26 81.72,-133.19 104.95,-208.93 47.45,-154.7 106.37,-304.83 184.75,-446.73 52.61,-95.25 107.63,-189.24 189.36,-263.37 139.98,-126.95 280.78,-253.02 421.52,-379.13 90.32,-80.92 181.79,-160.57 271.59,-242.05 79.84,-72.43 159.53,-145.14 236.67,-220.42 69.99,-68.29 141.07,-136.38 203.22,-211.55 66.21,-80.09 141.76,-145.88 237.51,-183.44 67.29,-26.38 138.96,-42.22 209.41,-59.85 132.65,-33.21 266.52,-54.6 404.42,-55.21 69.19,-0.31 138.29,-21.08 207.43,-32.61l120.81 0c45.03,11.88 91.91,19.2 134.61,36.73 60.09,24.66 102.6,70.19 113.76,136.55 12.56,74.63 50.56,137.35 86,201.78 43.23,78.63 83.45,158.8 100.33,248.01 11.47,60.66 6.75,117.76 -38.29,166.6 -23.66,25.65 -40.13,58.47 -65.58,81.8 -52.35,48.02 -119.91,57.13 -187.53,59.45 -126.45,4.35 -249.96,-20.25 -373.71,-41.56 -56.02,-9.65 -111.96,-19.82 -168.07,-28.95 -53.1,-8.64 -96.23,-36.9 -138.59,-67.45 -72.5,-52.28 -91.56,-63.9 -185.4,2.56 -83.41,59.08 -137.52,142.56 -181.57,233.29 -55.86,115.06 -110.98,230.51 -169.14,344.4 -31.76,62.23 -44.18,127.28 -45.25,195.98 -2.93,188.61 -56.51,365.8 -123.07,539.97 -3.43,8.98 -6.84,17.95 -11.02,28.93 57.15,-9.22 110.23,-20.23 163.88,-26 197.68,-21.27 381.99,11.97 541.34,139.85 61.37,49.26 110.94,108.89 149.81,177.19 8.24,14.47 15.34,19.69 33.17,14.44 145.07,-42.76 293.25,-69.04 444.33,-76.15 148.82,-7.03 294.09,13.09 434.52,64.47 116.51,42.65 224.16,101.05 318.46,182.11 32.26,27.74 61.69,58.87 91.28,89.55 11.48,11.92 19.32,16.85 37.86,10.03 105.37,-38.76 214.2,-59.23 324.99,-30.5 74.19,19.23 144.24,51.53 208.24,93.32 -10.95,30.64 -22.5,61 -34.64,91.05 -12.74,-11.88 -27.4,-22 -45.14,-29.38 -46.61,-19.38 -91.77,-42.25 -135.09,-62.41 -21.64,117.6 -42.33,230.02 -63.97,347.68 -12.26,-10.6 -18.57,-15.87 -24.65,-21.37 -79.44,-71.78 -161.17,-141.25 -237.43,-216.26 -48.68,-47.88 -86.22,-106.99 -134.1,-155.81 -114.71,-116.95 -256.16,-189.42 -412.23,-234.7 -91.63,-26.57 -186.19,-39.69 -280.77,-35.52 -97.61,4.3 -194.79,19.7 -291.95,31.95 -62.21,7.86 -99.83,46.5 -111.69,108.06 -11.6,60.22 -2.89,118.59 14.88,176.04 10.04,32.44 22.26,64.2 33.5,96.25 -81,-89.9 -148.27,-188.47 -210.66,-290.73 -43.09,-70.64 -84.84,-142.74 -134.8,-208.4 -95.3,-125.22 -231.89,-166.59 -382.61,-172.99 -168.72,-7.17 -325.99,41.86 -481.41,99.15 -98.88,36.46 -196.52,76.5 -296.35,110.12 -55.73,18.77 -114.8,27.71 -172.36,41.09 -0.83,-2.75 -1.67,-5.49 -2.5,-8.24 109.61,-39.03 218.77,-78.95 310.32,-153.94 -87.34,32.01 -177.7,47.04 -269.92,54.07 -102.5,7.81 -238.41,2.88 -275.25,-11.79 0.47,-0.59 0.88,-1.64 1.42,-1.72 5.75,-0.76 11.52,-1.58 17.3,-2.01 154.13,-11.21 301.77,-47.11 444.58,-107.33 110.69,-46.68 196.59,-121.08 251.25,-224.65 37.84,-71.7 59.07,-152.55 84.07,-230.48 12.43,-38.73 19.04,-79.81 23.8,-120.35 3.4,-29.07 -11.58,-39.27 -40.6,-34.14 -8.22,1.45 -16.41,3.74 -24.23,6.64 -61.98,22.97 -123.53,47.19 -185.91,69.02 -63.16,22.09 -128.52,34.67 -195.91,37.93 3.2,-4.22 6.94,-7.06 11.08,-9.09 63.82,-31.33 128.87,-60.38 191.3,-94.26 106.62,-57.85 202.92,-128.2 277.86,-226.57 96.55,-126.76 183.88,-259.4 263.71,-396.95 31.4,-54.11 58.01,-111.29 82.98,-168.73 13.92,-32.04 -14.12,-65.85 -49.13,-63.23 -15.59,1.16 -32.3,4.19 -46.02,11.21 -82.68,42.27 -164.47,86.27 -246.93,128.97 -30.71,15.9 -62.42,29.87 -93.68,44.73 -1.27,-2.3 -2.52,-4.59 -3.79,-6.87 24.97,-17.83 49.51,-36.32 75,-53.38 116.89,-78.22 233.74,-156.51 351.3,-233.72 31.41,-20.63 48.9,-47.51 49.58,-84.72 0.68,-37.7 -0.87,-75.45 0.61,-113.1 1.64,-41.85 5.59,-83.62 8.54,-125.43 2.92,0.18 5.84,0.35 8.78,0.53 0.39,2.92 1.25,5.85 1.13,8.74 -2.45,58.71 7.8,115.51 30.54,169.26 31.67,74.91 36.92,84.47 125.33,92.99 24.92,2.41 50.38,1.93 75.41,0.18 79.69,-5.57 156.24,-23.52 221.41,-72.12 26.03,-19.42 46.77,-45.93 70.27,-69.57 18.98,14.65 23.43,37 22.08,59.95 -4.4,75.47 -10.57,102.57 -91.11,96.43 -10.29,-0.79 -24.65,3.49 -31.21,10.76 -26.15,28.95 -18.01,69.26 15.24,90.2 79.6,50.16 245.13,16.13 277.85,-92.05 7.27,-24 14.08,-48.4 18.07,-73.11 8.51,-52.74 15.03,-105.8 22.37,-158.73 7.11,37.81 11.32,75.73 13.26,113.79 3.65,72.07 5.29,143.65 -27.72,211.68 -6.02,12.39 -1.35,36.14 7.33,48.25 20.79,29.05 62.03,21.99 81.01,-16.24 17.24,-34.73 32.49,-72.62 37.88,-110.63 13.04,-91.99 19.79,-184.88 29.17,-277.4 0.86,-8.32 2.43,-16.57 3.67,-24.84 8.38,45.49 14.24,90.35 17.01,135.41 5.75,93.55 16.73,187.24 -3.63,280.56 -9.14,41.87 20.19,68.83 61.2,55.91 12.41,-3.91 24.47,-11.17 34.67,-19.39 37.9,-30.52 51.14,-75.71 48.61,-119.15 -5.06,-86.66 -19.97,-172.72 -29.79,-259.13 -6.36,-55.86 -10.92,-111.91 -16.28,-167.87 2.44,-0.27 4.88,-0.55 7.31,-0.81 2.17,10.44 4.22,20.91 6.53,31.31 9.08,40.87 16.81,82.1 27.64,122.5 28.27,105.42 75.45,206.3 72.31,319.16 -0.76,27.29 44.54,55.18 59.8,38.87 25.88,-27.66 51.91,-55.44 45.17,-100.8 -11.74,-78.92 -46.28,-148.49 -82.98,-217.06 -42.64,-79.66 -90.87,-156.15 -105.62,-248.05 -7.97,-49.7 -69.02,-85.86 -111.68,-84.7 -3.44,27.85 -6.81,55.13 -10.42,84.31 -19.65,-27.75 -34.51,-53.94 -54.41,-75.44 -22,-23.76 -52.04,-26.2 -83.29,-18.94 21.93,50.87 14.79,98.85 -3.92,149.64 -8.18,-23.54 -13.47,-42.99 -21.56,-61.2 -20.53,-46.1 -76.52,-73.23 -126.43,-66.13 -37.21,5.29 -75.05,6.27 -112.64,8.96 -55.13,3.94 -110.98,3.44 -165.24,12.5 -82.45,13.77 -163.77,34.24 -245.62,51.64 -84.55,17.98 -165.17,47.02 -232.24,102.13 -40.28,33.11 -72.43,75.93 -109.34,113.29 -84.08,85.11 -168.55,169.85 -253.46,254.14 -51.57,51.19 -105.64,99.93 -156.1,152.18 -75.49,78.17 -147.44,159.77 -223.3,237.57 -132.67,136.08 -268.57,269.01 -400.28,405.98 -63.72,66.26 -122.2,138.13 -164.96,220.36 -32.75,63 -61.67,128.04 -91.3,192.61 -42.9,93.56 -89.02,185.96 -109.49,288.06 -13.98,69.71 -11.55,137.3 31.92,197.24 33.25,45.85 79.84,75.82 130.16,99.85 35.17,16.78 71.19,31.79 112.94,50.3 -38.55,7.54 -70.73,16.3 -103.46,19.58 -36.47,3.66 -73.43,2.89 -110.19,3.03 -23.89,0.1 -45.62,4.97 -59.68,25.58 -14.03,20.58 -9.52,42.8 3.19,61.47 14.97,21.99 31.18,44.08 50.74,61.83 96.36,87.47 208.33,145.17 337.26,166.45 138,22.75 276.46,42.78 414.55,65.09 40.05,6.46 79.51,16.62 119.24,25.07 -55.34,10.93 -109.97,16.75 -164.25,24.9 -61.25,9.19 -122.94,18.53 -177.55,50.63 -42.01,24.68 -49.24,53.02 -19.77,91.2 29.52,38.23 60.96,75.87 96.41,108.45 113.71,104.53 242.33,186.8 386.14,243.81 117.27,46.5 239.56,74.94 364.1,93.5 135.88,20.25 271.9,27.58 407.45,-2.74 71.25,-15.93 137.93,-41.67 189.83,-95.99 10.56,-11.06 19.82,-23.36 31.13,-36.82 42.72,67.71 101.5,112.38 172.17,140.17 87.13,34.24 177.11,49.13 270.74,29.42 26.46,-5.57 39.4,-20.9 34.61,-45.88 -7.68,-40.09 -16.86,-80.18 -29.4,-118.97 -28.34,-87.57 -60.43,-174.17 -69.19,-266.55 -3.23,-34.18 -0.52,-68.91 -0.52,-103.38 18.67,30.06 29.91,62.2 45.29,92.21 26.6,51.92 50.53,106.44 85.01,152.86 72.27,97.27 164.44,176.32 259.1,250.74 141.86,111.53 236.05,250.17 277.53,426.49 -64.8,43.57 -131.84,84.06 -200.89,121.3z"/>
 </g>
</svg>
